<svg xmlns="http://www.w3.org/2000/svg" xmlns:xlink="http://www.w3.org/1999/xlink" width="553.531" height="405.968" viewBox="0 0 553.531 405.968"><defs><linearGradient id="a" y1="1.033" x2="1.061" y2="-0.092" gradientUnits="objectBoundingBox"><stop offset="0" stop-color="#d3d2fd"/><stop offset="1" stop-color="#ebf2fd"/></linearGradient><filter id="b" x="0" y="39.594" width="553.531" height="366.374" filterUnits="userSpaceOnUse"><feOffset dy="7" input="SourceAlpha"/><feGaussianBlur stdDeviation="10" result="c"/><feFlood flood-opacity="0.161"/><feComposite operator="in" in2="c"/><feComposite in="SourceGraphic"/></filter><clipPath id="e"><path d="M58.943,123.532V416.266a13.639,13.639,0,0,0,13.639,13.639H538.835a13.639,13.639,0,0,0,13.639-13.639V123.532Z" transform="translate(8751.936 -3109.404)" fill="url(#a)"/></clipPath><linearGradient id="f" x1="0.162" y1="0.785" x2="1" y2="0.212" gradientUnits="objectBoundingBox"><stop offset="0" stop-color="#e2e5fd"/><stop offset="1" stop-color="#d2d0fc"/></linearGradient><linearGradient id="g" x1="0.5" y1="0" x2="0.5" y2="1" xlink:href="#f"/><linearGradient id="h" x1="0.645" y1="0.426" x2="1.133" y2="0.364" xlink:href="#f"/><clipPath id="i"><rect width="177.086" height="130.387" fill="none"/></clipPath><clipPath id="j"><rect width="177.087" height="130.387" fill="none"/></clipPath><clipPath id="k"><rect width="10.122" height="10.123" fill="none"/></clipPath><clipPath id="m"><rect width="8.598" height="9.832" fill="none"/></clipPath><clipPath id="n"><rect width="4.489" height="6.934" fill="none"/></clipPath><clipPath id="o"><rect width="7.667" height="9.455" fill="none"/></clipPath><clipPath id="p"><rect width="5.987" height="8.314" fill="none"/></clipPath><clipPath id="q"><rect width="72.521" height="59.036" fill="none"/></clipPath><clipPath id="r"><rect width="7.805" height="7.328" fill="none"/></clipPath><clipPath id="s"><rect width="5.179" height="5.047" fill="none"/></clipPath><clipPath id="t"><rect width="63.095" height="51.654" fill="none"/></clipPath></defs><g transform="translate(-8769.879 3778.096)"><circle cx="199.923" cy="199.923" r="199.923" transform="translate(8846.722 -3778.096)" fill="#706dee"/><path d="M552.474,13.64A13.639,13.639,0,0,0,538.835,0H72.582A13.639,13.639,0,0,0,58.943,13.64V31.716H552.474Z" transform="translate(8740.936 -3747.218)" fill="#e3e3e3"/><path d="M58.943,123.532V416.266a13.639,13.639,0,0,0,13.639,13.639H538.835a13.639,13.639,0,0,0,13.639-13.639V123.532Z" transform="translate(8740.936 -3839.034)" fill="#fff"/><path d="M131.275,49.446a4.256,4.256,0,1,1-4.256-4.256,4.256,4.256,0,0,1,4.256,4.256" transform="translate(8693.501 -3780.805)" fill="#eb3449"/><path d="M197.062,49.446a4.256,4.256,0,1,1-4.256-4.256,4.256,4.256,0,0,1,4.256,4.256" transform="translate(8644.604 -3780.805)" fill="#fdb202"/><path d="M262.849,49.446a4.256,4.256,0,1,1-4.256-4.256,4.256,4.256,0,0,1,4.256,4.256" transform="translate(8595.706 -3780.805)" fill="#1daa81"/><path d="M863.732,48H532.044a7.264,7.264,0,1,1,0-14.527H863.732a7.264,7.264,0,1,1,0,14.527" transform="translate(8394.696 -3772.098)" fill="#fff"/><path d="M440.612,48h0a7.264,7.264,0,1,1,7.264-7.264A7.264,7.264,0,0,1,440.612,48" transform="translate(8462.654 -3772.098)" fill="#fff"/><path d="M350.065,48h0a7.264,7.264,0,1,1,7.264-7.264A7.264,7.264,0,0,1,350.065,48" transform="translate(8529.955 -3772.098)" fill="#fff"/><line x2="5.795" transform="translate(8877.458 -3731.359)" fill="none" stroke="#b5b5b5" stroke-linecap="round" stroke-linejoin="round" stroke-width="2"/><path d="M361.657,50.781,358.5,53.6l3.153,2.821" transform="translate(8518.283 -3784.96)" fill="none" stroke="#b5b5b5" stroke-linecap="round" stroke-linejoin="round" stroke-width="2"/><line x1="5.795" transform="translate(8900.034 -3731.359)" fill="none" stroke="#b5b5b5" stroke-linecap="round" stroke-linejoin="round" stroke-width="2"/><path d="M461.949,56.422,465.1,53.6l-3.154-2.821" transform="translate(8441.396 -3784.96)" fill="none" stroke="#b5b5b5" stroke-linecap="round" stroke-linejoin="round" stroke-width="2"/><g transform="translate(696 -729.629)"><g transform="matrix(1, 0, 0, 1, 8073.88, -3048.47)" filter="url(#b)"><path d="M58.943,123.532V416.266a13.639,13.639,0,0,0,13.639,13.639H538.835a13.639,13.639,0,0,0,13.639-13.639V123.532Z" transform="translate(-28.94 -60.94)" fill="#fff"/></g><g transform="translate(-1427)"><path d="M58.943,123.532V416.266a13.639,13.639,0,0,0,13.639,13.639H538.835a13.639,13.639,0,0,0,13.639-13.639V123.532Z" transform="translate(9471.936 -3109.404)" fill="url(#a)"/><g transform="translate(720)" clip-path="url(#e)"><path d="M8951.265-3027.439s67.051,131.053-71.114,150.356-126.99,147.308-126.99,147.308L8679-3008.137Z" fill="url(#f)"/><path d="M8931.962-2652.565s-16.255-136.133,128.006-202.168,125.975-190.993,125.975-190.993h130.037v393.161Z" fill="url(#g)"/><path d="M8931.962-2652.565s-16.255-136.133,128.006-202.168,125.975-190.993,125.975-190.993h130.037v393.161Z" transform="translate(92)" fill="url(#h)"/></g></g><g transform="translate(8396.35 -2844.16)"><g clip-path="url(#i)"><g transform="translate(0 0)"><g clip-path="url(#j)"><path d="M126.344,278.178q-6.21,0-12.387-.5a90.113,90.113,0,0,1-18.942-3.322,51.451,51.451,0,0,1-17.4-8.863l-.2-.159a77.859,77.859,0,0,1-15.155-15.8,63.3,63.3,0,0,1-8.459-16.164,52.34,52.34,0,0,1-2.772-20.867A55.7,55.7,0,0,1,52.936,201.1,45.662,45.662,0,0,1,61.3,184.657c5.884-7.293,13.816-12.295,24.251-15.292,9.056-2.6,18.755-3.338,27.312-3.988,7.972-.606,19.462.538,31.524,3.138a218.78,218.78,0,0,1,45.929,15.717c8.815,4.133,16,9.052,21.356,14.619,6.8,7.067,10.462,15.046,10.893,23.716a35.617,35.617,0,0,1-2.738,15.293,42.018,42.018,0,0,1-8.115,12.673c-7.062,7.562-16.219,12-23.407,15.028a161.731,161.731,0,0,1-36.647,10.562,157.414,157.414,0,0,1-25.315,2.055m-8.789-112.15q-2.478,0-4.627.164c-16.934,1.287-38.009,2.889-50.989,18.979-5.928,7.347-9.327,16.565-10.1,27.4-2.008,28.032,19.448,46.985,26.072,52.126l.21.164c11.5,9.106,26,11.216,35.9,12.011a158.848,158.848,0,0,0,73.968-12.061c7.114-2.993,16.171-7.384,23.127-14.832,7.131-7.635,11.106-17.866,10.635-27.368-.955-19.24-17.809-31.086-31.779-37.636-28.414-13.321-55.78-18.944-72.418-18.944" transform="translate(-45.521 -147.791)" fill="#f0f4ff"/><path d="M144.334,242.937c-7.974,6.314-17.359,9.425-26.939,11q-1.171.193-2.345.357c-2.079.289-4.162.514-6.237.69l-.6.05q-1.291.1-2.584.186-4.62.293-9.25.308-.535,0-1.07,0-2.063-.006-4.127-.07-4.177-.123-8.348-.474l-.088-.007q-.769-.065-1.537-.137-2.142-.2-4.279-.462-4.588-.559-9.152-1.388-3.228-.585-6.435-1.307-2.57-.576-5.124-1.239a162.264,162.264,0,0,1-22.166-7.5c-8.37-3.522-16.684-7.882-23.267-14.93S-.482,210.821.039,200.346a34.3,34.3,0,0,1,6.829-18.761,45.943,45.943,0,0,1,4.822-5.576,63.22,63.22,0,0,1,10.7-8.387,87.9,87.9,0,0,1,9.662-5.261q4.468-2.095,8.837-3.921l.336-.14c6.606-2.755,13.014-5.064,19.125-6.977q5.72-1.793,11.069-3.134,1.4-.354,2.77-.678l.14-.033c.277-.066.555-.131.83-.194q1.068-.248,2.116-.477l.062-.014.443-.1.146-.032q3.286-.707,6.37-1.249h0q4.234-.748,8.047-1.2,2.03-.247,3.928-.415h0q1.24-.112,2.421-.192,1.112-.076,2.17-.124.815-.04,1.6-.06a65.872,65.872,0,0,1,6.839.122c1.944.148,3.933.3,5.95.475a114.519,114.519,0,0,1,20.62,3.313,51.4,51.4,0,0,1,16.816,7.821,41.453,41.453,0,0,1,4.437,3.736l.2.2c.177.173.352.349.526.526q.812.826,1.592,1.714s0,0,0,0q.231.261.457.528.34.4.675.815a45.433,45.433,0,0,1,8.338,16.458c.065.238.13.475.191.709.138.525.264,1.041.38,1.545l.038.169h0q.207.921.37,1.784c.208,1.093.366,2.112.488,3.038.214,1.629.317,2.969.386,3.922,2.243,31.31-24.678,51.247-26.436,52.639" transform="translate(0 -128.262)" fill="#f0f4ff"/><path d="M902.426,1223.49l0,.13-.066-.017Z" transform="translate(-807.174 -1094.436)" fill="#bebdef"/><path d="M759.554,145.47l-2.715,89.617-.676,22.3q-2.063-.006-4.127-.07-4.177-.123-8.348-.474l-.088-.007q-.769-.065-1.537-.137l-.246-8.117L738.785,148.53q3.286-.707,6.37-1.249h0q4.234-.748,8.047-1.2,2.03-.247,3.928-.415h0q1.241-.112,2.421-.192" transform="translate(-660.857 -130.126)" fill="#5988ff"/><path d="M902.426,1223.49l0,.13-.066-.017Z" transform="translate(-807.174 -1094.436)" fill="#bebdef"/><path d="M909.1,152.693l-22.957,81.885-7.291,26q-4.62.293-9.25.308-.535,0-1.07,0-2.063-.006-4.127-.07l4.8-22.235,19.27-89.205a114.518,114.518,0,0,1,20.62,3.313" transform="translate(-773.227 -133.624)" fill="#9f9cff"/><path d="M902.426,1223.49l0,.13-.066-.017Z" transform="translate(-807.174 -1094.436)" fill="#bebdef"/><path d="M986.216,310.6,932.35,385.766c-2.079.289-4.162.514-6.237.69l-.6.05q-1.291.1-2.584.186-4.62.293-9.25.308l16.541-26.312,44.209-70.327.2.2c.177.173.352.349.526.526q.812.826,1.592,1.714s0,0,0,0q.231.261.457.528.34.4.675.815a45.433,45.433,0,0,1,8.338,16.458" transform="translate(-817.3 -259.733)" fill="#9f9cff"/><path d="M432.361,322.294q-.769-.065-1.537-.137-2.142-.2-4.279-.462-4.588-.559-9.151-1.388l-6.665-23.774-19.883-70.916c6.606-2.755,13.014-5.064,19.125-6.976l20.609,95.4Z" transform="translate(-349.618 -195.578)" fill="#9f9cff"/><path d="M135.173,459.916q-4.588-.559-9.151-1.388-3.228-.585-6.435-1.307-2.57-.576-5.124-1.239L65.115,387.122a45.946,45.946,0,0,1,4.822-5.576,63.219,63.219,0,0,1,10.7-8.387l38.719,61.593Z" transform="translate(-58.247 -333.799)" fill="#9f9cff"/><path d="M144.334,619.363c-7.974,6.314-17.359,9.425-26.939,11-2.854.47-5.725.8-8.582,1.046l-.6.05a155.278,155.278,0,0,1-25.379-.05,158.148,158.148,0,0,1-21.491-3.3,161.765,161.765,0,0,1-27.29-8.74c-8.37-3.522-16.684-7.881-23.267-14.93S-.482,587.247.039,576.772a33.5,33.5,0,0,1,.527-4.5,40.546,40.546,0,0,0,10.216,19.95c6.583,7.048,14.9,11.408,23.267,14.93a161.771,161.771,0,0,0,27.29,8.74,158.147,158.147,0,0,0,21.491,3.3,155.272,155.272,0,0,0,25.379.05l.6-.05c2.856-.243,5.728-.576,8.582-1.046,9.58-1.577,18.964-4.688,26.939-11C145.9,605.9,167.516,589.89,170.55,564.2c.107,1.007.172,1.861.219,2.524,2.243,31.31-24.678,51.247-26.436,52.639" transform="translate(0 -504.688)" fill="#706dee"/><path d="M498.214,452.135h0l-.589,0h0l-1.082-.005h-.03l-5.18-.025L481,452.052v0l0,.2-.009,1.071v.031l-.1,5.428v.006l-.227,12.565-.018.977-.291,16.134-.028,1.577c-2.854.47-5.725.8-8.582,1.046H445.759a158.158,158.158,0,0,1-21.491-3.3l-.454-15.364-.027-.927-.369-12.542h0l-.2-6.9-16.956.081h-.534a128.1,128.1,0,0,1,5.7-21.967c1.54-4.283,3.306-6.918,5.22-10.229a18.775,18.775,0,0,1,2.794-3.7h0a16.844,16.844,0,0,1,6.205-4.083,78.588,78.588,0,0,1,16.441-4.12q.916-.125,1.86-.232l.352-.039q1.07-.116,2.171-.2a71.578,71.578,0,0,1,7.212-.206q2.068.044,4.207.221.943.079,1.9.187a64.815,64.815,0,0,1,15.918,3.849,14.371,14.371,0,0,1,3.739,2.175h0a25.375,25.375,0,0,1,5.969,7.136c1.982,3.529,3.968,7.429,5.858,11.7a137.974,137.974,0,0,1,6.937,19.515" transform="translate(-362.929 -364.368)" fill="#ff534f"/><path d="M1082.787,682.179l-16.562.138-5.122-17.8c.094.308,6.1,12.946,7.674,13.461,1.4.459,11.9,3.4,14.011,4.206" transform="translate(-949.176 -594.42)" fill="#e83a3a"/><path d="M578.782,413.009c-1.219,7.837-11.349,7.409-11.349,7.409-11.555.256-11.6-6.289-12.324-9.014-.715-2.706-19.1,4.727-19.346,4.826a16.847,16.847,0,0,1,6.206-4.083c9.356-3.471,29.028-8.56,50.06-.541a14.381,14.381,0,0,1,3.74,2.175c-3.463-1.647-10.659-2.459-14.439-2.787a2.375,2.375,0,0,0-2.546,2.015" transform="translate(-479.249 -364.365)" fill="#e83a3a"/><path d="M755.94,401.318c0,4-4.792,7.243-10.7,7.243s-10.7-3.243-10.7-7.243,4.792-7.243,10.7-7.243,10.7,3.243,10.7,7.243" transform="translate(-657.053 -352.508)" fill="#b72929"/><path d="M761.421,366.731l-.047.017h0a12.392,12.392,0,0,1-4.376.787q-.194,0-.387-.007a.453.453,0,0,1-.053,0c-.12,0-.236-.009-.353-.015a.125.125,0,0,1-.028,0c-.129-.007-.255-.017-.381-.028-.224-.02-.447-.046-.668-.076-.069-.009-.139-.019-.208-.03-.12-.017-.24-.037-.356-.059s-.236-.043-.353-.065c-.255-.052-.507-.111-.756-.172-.12-.03-.236-.063-.353-.1s-.217-.061-.324-.094l-.057-.015c-.11-.035-.217-.067-.324-.1s-.2-.067-.3-.1c-.126-.044-.249-.087-.372-.133l-.268-.1c-.208-.08-.41-.165-.608-.25-2.552-1.135-4.01-3.153-3.806-5.256l.992-10.216h16.146l1.474,10.4c.325,2.286-1.314,4.515-4.228,5.617" transform="translate(-668.222 -313.722)" fill="#fdbfae"/><path d="M763.434,350.715l-.422,3.105s-3.2,5.533-13.236,2.6c0,0-3.835,11.386,11.6,10.331a12.392,12.392,0,0,1-4.376.787q-.194,0-.387-.007a.453.453,0,0,1-.053,0c-.12,0-.236-.009-.353-.015a.121.121,0,0,1-.028,0c-.129-.007-.255-.017-.381-.028-.224-.02-.447-.046-.668-.076-.069-.009-.139-.019-.208-.03-.12-.017-.24-.037-.356-.059s-.236-.043-.353-.065c-.255-.052-.507-.111-.756-.172-.12-.03-.236-.063-.353-.1s-.217-.061-.324-.094l-.057-.015c-.11-.035-.217-.067-.324-.1s-.2-.067-.3-.1c-.126-.043-.249-.087-.372-.133l-.268-.1c-.208-.08-.41-.165-.608-.25-2.552-1.135-4.01-3.153-3.806-5.256l.992-10.216Z" transform="translate(-668.222 -313.722)" fill="#fe9f7b"/><path d="M676.337,180.21s-2.317-3.011-3.994,0,2.756,10.713,4.332,8.7-.338-8.7-.338-8.7" transform="translate(-601.09 -160.005)" fill="#fe9f7b"/><path d="M685.336,196.569a.237.237,0,0,1-.14-.046,6.481,6.481,0,0,1-2.07-5.88,1.714,1.714,0,0,1,1.178-1.492.866.866,0,0,1,.86.223c.871.9.089,4.094,0,4.456a.237.237,0,1,1-.459-.117c.322-1.267.64-3.475.122-4.009a.4.4,0,0,0-.417-.09c-.5.112-.723.674-.817,1.126a6.04,6.04,0,0,0,1.886,5.4.237.237,0,0,1-.14.428" transform="translate(-610.985 -169.174)" fill="#fd7259"/><path d="M949.539,180.21s2.317-3.011,3.994,0-2.756,10.713-4.332,8.7.338-8.7.338-8.7" transform="translate(-848.522 -160.005)" fill="#fe9f7b"/><path d="M964.17,196.569a.237.237,0,0,1-.14-.428,6.04,6.04,0,0,0,1.886-5.4c-.095-.452-.313-1.014-.818-1.126a.4.4,0,0,0-.417.09c-.518.534-.2,2.742.122,4.009a.237.237,0,1,1-.459.117c-.092-.361-.874-3.558,0-4.456a.865.865,0,0,1,.86-.223,1.714,1.714,0,0,1,1.178,1.492,6.481,6.481,0,0,1-2.07,5.88.237.237,0,0,1-.14.046" transform="translate(-862.256 -169.174)" fill="#fd7259"/><path d="M723.014,68.876a10.458,10.458,0,0,0-10.458,10.458v7.327a19.73,19.73,0,0,0,3.305,10.932s3.027,3.511,3.155,3.685c1.218,1.646,3.929,2.624,5.989,2.624h1.109c2.06,0,4.771-.979,5.989-2.624.129-.174,3.155-3.685,3.155-3.685a19.731,19.731,0,0,0,3.305-10.932V79.334a10.458,10.458,0,0,0-10.458-10.458Z" transform="translate(-637.395 -61.611)" fill="#fdbfae"/><path d="M775.525,252.118a.557.557,0,0,1-.087-.007,47.022,47.022,0,0,0-7.2-.58h-.143a47.021,47.021,0,0,0-7.352.58.553.553,0,1,1-.173-1.092,47.978,47.978,0,0,1,15.046,0,.553.553,0,0,1-.086,1.1" transform="translate(-679.923 -224.011)" fill="#fe9f7b"/><path d="M877.8,212.655c0,.852.466,1.543,1.041,1.543s1.041-.691,1.041-1.543-.466-1.543-1.041-1.543-1.041.691-1.041,1.543" transform="translate(-785.213 -188.844)" fill="#40231f"/><path d="M850.328,162.587a2.237,2.237,0,0,1,.286-.218c.088-.059.174-.105.261-.157l.263-.131c.088-.042.177-.074.266-.111.177-.076.359-.121.538-.18.181-.041.362-.09.543-.121s.363-.06.544-.077l.543-.039a10.2,10.2,0,0,1,1.072.034c.357.018.7.084,1.051.134s.685.146,1.026.221c.333.1.669.19,1,.294l.976.348a.488.488,0,0,1-.31.925l-.028-.009-.936-.3c-.314-.086-.631-.161-.945-.242-.318-.057-.634-.125-.952-.17s-.636-.084-.952-.087a9.071,9.071,0,0,0-.943,0l-.461.05c-.153.019-.3.055-.451.08s-.291.077-.437.114c-.137.053-.283.093-.412.155a3.549,3.549,0,0,0-.381.19c-.055.037-.117.072-.167.109l-.074.055-.029.025-.013.011,0,0a.632.632,0,0,1-.88-.907" transform="translate(-760.463 -144.512)" fill="#40231f"/><path d="M776.215,212.655c0,.852-.466,1.543-1.041,1.543s-1.041-.691-1.041-1.543.466-1.543,1.041-1.543,1.041.691,1.041,1.543" transform="translate(-692.477 -188.844)" fill="#40231f"/><path d="M745.131,163.5l0,0-.013-.011-.029-.025-.074-.055c-.05-.037-.112-.072-.167-.109a3.533,3.533,0,0,0-.381-.19c-.129-.063-.275-.1-.412-.155-.146-.036-.288-.083-.437-.114s-.3-.061-.451-.08l-.462-.05a9.031,9.031,0,0,0-.943,0c-.316,0-.634.053-.952.087s-.635.112-.952.17c-.315.081-.631.155-.945.242l-.936.3-.027.008a.488.488,0,0,1-.311-.924l.976-.348c.33-.1.666-.2,1-.294.341-.075.68-.16,1.026-.221s.695-.116,1.051-.134a10.2,10.2,0,0,1,1.072-.034l.543.039c.181.017.363.051.544.077s.362.08.544.121c.179.059.361.1.538.18.089.037.178.069.266.111l.263.131c.087.052.173.1.261.157a2.243,2.243,0,0,1,.286.218.632.632,0,1,1-.88.907" transform="translate(-659.545 -144.512)" fill="#40231f"/><path d="M796.491,319.587a2.749,2.749,0,0,1-.857,1.28,3.425,3.425,0,0,1-3.306.413c-.24-.068-.463-.143-.667-.223a4.924,4.924,0,0,1-1.251-.693,3.445,3.445,0,0,1-.612-.613,2.648,2.648,0,0,1-.581-1.857Z" transform="translate(-705.96 -284.363)" fill="#40231f"/><path d="M800.65,336.616a3.426,3.426,0,0,1-3.306.413c-.24-.068-.463-.143-.667-.223a4.882,4.882,0,0,1-1.251-.693,3.513,3.513,0,0,1-.342-.3,3.255,3.255,0,0,1-.27-.309c1.48.147,5.265.57,5.836,1.116" transform="translate(-710.976 -300.111)" fill="#ff534f"/><path d="M833.174,230.095a.277.277,0,0,1-.1-.537l1.776-.675a.729.729,0,0,0,.414-.964c-.812-1.932-1.943-5.732-1.955-5.77a.277.277,0,1,1,.532-.158c.011.038,1.134,3.809,1.934,5.713a1.283,1.283,0,0,1-.728,1.7l-1.776.675a.277.277,0,0,1-.1.018" transform="translate(-745.042 -198.397)" fill="#fd7259"/><path d="M628.673,702.872l-.029,1.577c-2.854.47-5.725.8-8.582,1.046-3.672.308-7.61.507-11.786.54-5.088.04-9.837-.174-14.2-.54-3.391-.284-7-.7-10.786-1.279q-5.376-.826-10.7-2.023l-.454-15.364-.027-.927-.369-12.542h0l-.2-6.9L577.726,650l1.122-2.984s-3.044,17.673-.6,27.648a13.6,13.6,0,0,0,1.613,4.068c1.59,2.488,2.708,5.866,4.812,9.307,4.643,7.6,14.088,15.5,44,14.829" transform="translate(-511.249 -578.772)" fill="#e83a3a"/><path d="M418.419,840.887l-4.185,10.3-.311.764-.8-.127-7.241-1.154c-2.191-.477-4.4-.816-6.621-1.114a8.09,8.09,0,0,1-6.573-7.049,9.633,9.633,0,0,1,0-2.861l1.223-8.283,17.547-.084-1.526,6.212,7.353,2.939Z" transform="translate(-351.174 -743.598)" fill="#fdbfae"/><path d="M587.658,642.4c.359-1.909.787-3.8,1.242-5.688.222-.944.468-1.883.706-2.823s.5-1.874.756-2.81.533-1.866.81-2.8.568-1.857.879-2.777.631-1.838.98-2.746c.088-.227.18-.452.273-.677s.188-.449.289-.671a8.324,8.324,0,0,1,.689-1.286l-.158.327-.136.336c-.046.112-.084.227-.127.34s-.084.226-.121.342c-.155.458-.306.917-.444,1.381s-.282.926-.416,1.39l-.4,1.394-.786,2.8-.78,2.8-.785,2.8c-.268.931-.525,1.865-.8,2.8-.536,1.863-1.082,3.723-1.67,5.574" transform="translate(-525.671 -554.715)" fill="#b72929"/><path d="M1053.491,642.4c-.588-1.851-1.135-3.711-1.67-5.574-.273-.93-.529-1.864-.8-2.8l-.785-2.8-.78-2.8-.786-2.8-.4-1.394c-.135-.465-.272-.929-.416-1.39s-.288-.923-.444-1.381c-.037-.115-.079-.228-.121-.342s-.081-.228-.127-.34l-.136-.336-.158-.327a8.33,8.33,0,0,1,.689,1.286c.1.222.2.445.289.671s.185.45.273.677q.525,1.361.981,2.746c.311.92.592,1.849.879,2.777s.545,1.863.81,2.8.512,1.872.756,2.81.484,1.879.706,2.823c.455,1.886.882,3.779,1.242,5.688" transform="translate(-936.443 -554.715)" fill="#b72929"/><path d="M694.625,832.965H654.989c-.739,0-1.12-1.208-.612-1.943l7.165-10.37a2.555,2.555,0,0,1,2.065-1.217h22.4a2.555,2.555,0,0,1,2.065,1.217l7.165,10.37c.507.735.126,1.943-.613,1.943" transform="translate(-585.146 -733.001)" fill="#769dff"/><path d="M709.314,837.625H673.426c-.669,0-1.014-1.1-.554-1.764l.992-1.44,5.5-7.976a2.315,2.315,0,0,1,1.87-1.1h20.282a2.312,2.312,0,0,1,1.869,1.1l3.207,4.654,3.281,4.762c.459.667.114,1.764-.555,1.764" transform="translate(-601.709 -738.284)" fill="#c6d6ff"/><path d="M694.625,931.228H654.989c-.739,0-1.12-1.208-.612-1.943h40.86c.507.735.126,1.943-.613,1.943" transform="translate(-585.146 -831.263)" fill="#4574ec"/><path d="M611.021,883.991l-.848.7.246.406a1.155,1.155,0,0,1-.312,1.536l-10.179,6.612a6.166,6.166,0,0,1-1.066.555,5.772,5.772,0,0,1-3.537.276,19.334,19.334,0,0,0-6.152-.577c-.026,0-.052,0-.077.006a15.892,15.892,0,0,1-1.667-.127l-3.106-.295-.778-.074c-.006-.018-.013-.035-.018-.053a6.931,6.931,0,0,1-.243-.9,19.333,19.333,0,0,1-.089-5.111c.02-.261.042-.525.068-.793l4.424-4.586.693-.717a6.024,6.024,0,0,1,4.456-2.27l5.355-1.288a1.049,1.049,0,0,1,.981.286l2.5,2.446a.762.762,0,0,1,.141.858.589.589,0,0,1-.517.363,8.357,8.357,0,0,1-2.889-.7l-3.671,1.428a1.34,1.34,0,0,0-.64.542l-.493.79a.732.732,0,0,0,.5,1.136c.6.024,1.3.082,1.81.127h0c.166.017.311.031.425.041a1.175,1.175,0,0,0,.542-.075l10.345-4.042a1.867,1.867,0,0,1,2.35,1l.262.524a.888.888,0,0,1,1.291.3l.123.2a1.17,1.17,0,0,1-.227,1.478" transform="translate(-521.573 -784.723)" fill="#fdbfae"/><path d="M782.827,947.7a19.268,19.268,0,0,0-1.768.846c-.291.149-.573.315-.86.473l-.848.5c-.562.339-1.115.7-1.661,1.07s-1.084.762-1.6,1.2a19.14,19.14,0,0,0,1.768-.845c.577-.308,1.147-.63,1.708-.972l.836-.523c.275-.182.553-.357.824-.548.546-.373,1.084-.762,1.6-1.195" transform="translate(-694.227 -847.738)" fill="#fd7259"/><path d="M767.853,922.338c-.715.248-1.413.542-2.1.853-.347.151-.687.318-1.031.478l-1.021.5-1.011.529c-.333.185-.67.361-1,.555-.664.378-1.32.773-1.959,1.214.716-.248,1.413-.542,2.1-.852.347-.151.687-.319,1.031-.478l1.02-.5,1.01-.53c.333-.185.67-.362,1-.555.663-.379,1.32-.773,1.959-1.214" transform="translate(-679.592 -825.049)" fill="#fd7259"/><path d="M665.029,908.325c-.506-.046-1.205-.1-1.81-.127a.732.732,0,0,1-.5-1.136l.493-.79a1.34,1.34,0,0,1,.64-.542l3.671-1.429a8.36,8.36,0,0,0,2.89.7.588.588,0,0,0,.517-.364,4.259,4.259,0,0,1-2.766-.6,1.866,1.866,0,0,0-1.961.132,5.338,5.338,0,0,1-3.453,1.137c-2.2-.256-4.965,5.8,2.278,3.017" transform="translate(-590.694 -808.487)" fill="#fd976e"/><path d="M496.48,871.444c-1.294-.433-2.572-.9-3.848-1.37-.64-.23-1.273-.478-1.912-.711l-1.908-.719c-.635-.241-1.27-.484-1.907-.719-.318-.119-.634-.244-.953-.359s-.637-.234-.955-.355c-.639-.228-1.275-.467-1.918-.683s-1.287-.424-1.948-.6a14.349,14.349,0,0,1,2.014.373c.33.087.663.167.99.264s.655.193.981.292c.651.2,1.3.42,1.942.643s1.281.464,1.922.7,1.271.49,1.9.746,1.261.514,1.886.786c1.252.537,2.493,1.1,3.711,1.713" transform="translate(-430.382 -774.592)" fill="#fd7259"/><path d="M405.767,831.362s14.94,1.312,13.034,2.958l-1.906,1.646,4.3,1.529,1.527-6.213-17.547.084Z" transform="translate(-362.44 -743.597)" fill="#fd976e"/><path d="M419.69,947.582l-.077.006a15.842,15.842,0,0,1-1.667-.127l-3.106-.295-.778-.074c-.006-.018-.013-.035-.018-.054l-7.241-1.153c-2.191-.477-4.4-.816-6.621-1.114a8.09,8.09,0,0,1-6.573-7.049h0s10.635,6.339,20.191,8.414q.679.148,1.35.265c.127.022.252.043.379.064a17.627,17.627,0,0,1,4.16,1.116" transform="translate(-352.091 -838.812)" fill="#fd976e"/><path d="M1050.222,840.887l4.186,10.3.311.764.8-.127,7.241-1.154c2.191-.477,4.4-.816,6.621-1.114a8.09,8.09,0,0,0,6.573-7.049,9.635,9.635,0,0,0,0-2.861l-1.223-8.283-17.547-.084,1.526,6.212-7.353,2.939Z" transform="translate(-939.444 -743.598)" fill="#fdbfae"/><path d="M836.4,883.991l.848.7-.246.406a1.155,1.155,0,0,0,.312,1.536l10.179,6.612a6.169,6.169,0,0,0,1.066.555,5.772,5.772,0,0,0,3.537.276,19.334,19.334,0,0,1,6.152-.577c.026,0,.052,0,.077.006a15.892,15.892,0,0,0,1.667-.127l3.106-.295.778-.074c.006-.018.012-.035.018-.053a6.921,6.921,0,0,0,.243-.9,19.327,19.327,0,0,0,.089-5.111c-.02-.261-.042-.525-.068-.793l-4.424-4.586-.693-.717a6.024,6.024,0,0,0-4.456-2.27l-5.355-1.288a1.049,1.049,0,0,0-.981.286l-2.5,2.446a.762.762,0,0,0-.141.858.589.589,0,0,0,.517.363,8.357,8.357,0,0,0,2.889-.7l3.671,1.428a1.339,1.339,0,0,1,.64.542l.493.79a.732.732,0,0,1-.5,1.136c-.6.024-1.3.082-1.81.127h0c-.166.017-.311.031-.425.041a1.175,1.175,0,0,1-.543-.075L840.2,880.487a1.867,1.867,0,0,0-2.35,1l-.262.524a.888.888,0,0,0-1.291.3l-.123.2a1.17,1.17,0,0,0,.226,1.478" transform="translate(-747.827 -784.723)" fill="#fdbfae"/><path d="M847.771,947.7a19.285,19.285,0,0,1,1.768.846c.291.149.573.315.86.473l.848.5c.562.339,1.115.7,1.661,1.07s1.084.762,1.6,1.2a19.155,19.155,0,0,1-1.768-.845c-.577-.308-1.147-.63-1.708-.972l-.836-.523c-.275-.182-.553-.357-.824-.548-.546-.373-1.084-.762-1.6-1.195" transform="translate(-758.348 -847.738)" fill="#fd7259"/><path d="M850.985,922.338c.715.248,1.413.542,2.1.853.347.151.688.318,1.031.478l1.021.5,1.011.529c.333.185.67.361,1,.555.663.378,1.32.773,1.959,1.214-.716-.248-1.413-.542-2.1-.852-.347-.151-.687-.319-1.031-.478l-1.02-.5-1.01-.53c-.333-.185-.67-.362-1-.555-.663-.379-1.32-.773-1.959-1.214" transform="translate(-761.223 -825.049)" fill="#fd7259"/><path d="M932.954,908.325c.506-.046,1.205-.1,1.81-.127a.732.732,0,0,0,.5-1.136l-.493-.79a1.339,1.339,0,0,0-.64-.542l-3.67-1.429a8.36,8.36,0,0,1-2.89.7.589.589,0,0,1-.517-.364,4.259,4.259,0,0,0,2.766-.6,1.865,1.865,0,0,1,1.961.132,5.338,5.338,0,0,0,3.453,1.137c2.2-.256,4.965,5.8-2.278,3.017" transform="translate(-829.266 -808.487)" fill="#fd976e"/><path d="M1061.1,871.444c1.218-.615,2.459-1.176,3.711-1.713.625-.272,1.255-.528,1.886-.786s1.268-.5,1.9-.746,1.277-.475,1.921-.7,1.29-.441,1.942-.643c.326-.1.653-.2.981-.292s.66-.177.99-.264a14.351,14.351,0,0,1,2.014-.373c-.661.173-1.307.37-1.948.6s-1.279.455-1.918.683c-.318.121-.635.24-.955.355s-.635.24-.953.359c-.637.234-1.271.478-1.907.719l-1.908.719c-.638.233-1.272.48-1.912.711-1.276.471-2.555.937-3.848,1.37" transform="translate(-949.172 -774.592)" fill="#fd7259"/><path d="M1133.157,831.362s-14.94,1.312-13.034,2.958l1.906,1.646-4.3,1.529-1.527-6.213,17.547.084Z" transform="translate(-998.461 -743.597)" fill="#fd976e"/><path d="M1046.87,947.582c.026,0,.052,0,.077.006a15.843,15.843,0,0,0,1.667-.127l3.106-.295.778-.074c.006-.018.013-.035.018-.054l7.241-1.153c2.191-.477,4.4-.816,6.621-1.114a8.09,8.09,0,0,0,6.573-7.049h0s-10.635,6.339-20.191,8.414q-.679.148-1.35.265c-.127.022-.252.043-.379.064a17.628,17.628,0,0,0-4.16,1.116" transform="translate(-936.445 -838.812)" fill="#fd976e"/><path d="M725.969,17.264a19.048,19.048,0,0,1-1,3.37,7.627,7.627,0,0,1-4.058-.195c-2.943-1.026-3.787-3.671-5.547-5.351-1.815-1.734-5.289-3.1-12.552-1.557a36.175,36.175,0,0,1-1.845,5.423c-.995,2.408-1.979,4.389-2.005,4.442h0c-2.615-11.829-1.478-15.761-.457-17.066a1.449,1.449,0,0,1,.968-.65,2.977,2.977,0,0,1,.039-1.415c1.4-5.04,16.444-6.144,22.847-.4,3.438,3.084,4.628,8.279,3.612,13.4" transform="translate(-623.8 -0.002)" fill="#40231f"/><path d="M944.608,194.238l1.531,3.239v-3.421s-1.145-.513-1.531.181" transform="translate(-844.97 -173.425)" fill="#40231f"/><path d="M744.231,17.264c-1.836.1-5.218-.336-8.537-4.057s-9.008-3.092-12.338-2.3a3.209,3.209,0,0,1-3.723-1.945l-1.86-4.7c1.4-5.04,16.444-6.144,22.847-.4,3.438,3.084,4.628,8.279,3.612,13.4" transform="translate(-642.062 -0.002)" fill="#4b2f27"/><path d="M701.648,64.272a3.248,3.248,0,0,1,.587,2.471c-.245,1.436-.684,3.77-1.267,5.88-.553,2-1.235,3.8-2.005,4.442h0c-2.615-11.829-1.478-15.76-.457-17.066Z" transform="translate(-623.8 -53.671)" fill="#4b2f27"/><g transform="translate(77.099 18.462)" opacity="0.2"><g clip-path="url(#k)"><path d="M741.049,180.093a5.061,5.061,0,1,1-9.3-2.773c.065-.1.133-.195.2-.289a5.059,5.059,0,0,1,9.09,3.062" transform="translate(-730.927 -175.032)" fill="#fff"/></g></g><g transform="translate(89.516 18.462)" opacity="0.2"><g clip-path="url(#k)"><path d="M858.769,180.093a5.054,5.054,0,0,1-3.933,4.935,5.07,5.07,0,0,1-3.735-.594,5.106,5.106,0,0,1-1.27-1.087,5.044,5.044,0,0,1-1.11-2.388,5.115,5.115,0,0,1-.074-.866,5.061,5.061,0,1,1,10.122,0" transform="translate(-848.647 -175.032)" fill="#fff"/></g></g><g transform="translate(78.468 18.611)" opacity="0.2"><g clip-path="url(#m)"><path d="M752.508,180.1l-6.1,6.166a5.055,5.055,0,0,1-2.5-1.457l4.912-8.375a5.069,5.069,0,0,1,3.685,3.666" transform="translate(-743.91 -176.438)" fill="#fff"/></g></g><g transform="translate(77.099 18.495)" opacity="0.2"><g clip-path="url(#n)"><path d="M735.416,175.338l-4.117,6.935a5.07,5.07,0,0,1,.455-4.679l.2-.289a5.053,5.053,0,0,1,3.457-1.967" transform="translate(-730.927 -175.338)" fill="#fff"/></g></g><g transform="translate(91.97 19.13)" opacity="0.2"><g clip-path="url(#o)"><path d="M879.581,185.758a5.069,5.069,0,0,1-.115,1.079l-3.818,3.856a5.07,5.07,0,0,1-3.735-.594l5.122-8.733a5.061,5.061,0,0,1,2.545,4.393" transform="translate(-871.914 -181.364)" fill="#fff"/></g></g><g transform="translate(89.59 18.462)" opacity="0.2"><g clip-path="url(#p)"><path d="M855.334,175.131l-4.877,8.215a5.043,5.043,0,0,1-1.11-2.388l4.142-5.856a5.1,5.1,0,0,1,1.845.028" transform="translate(-849.347 -175.032)" fill="#fff"/></g></g><path d="M732.818,182.362a5.434,5.434,0,1,1,5.434-5.434,5.441,5.441,0,0,1-5.434,5.434m0-10.122a4.688,4.688,0,1,0,4.688,4.688,4.693,4.693,0,0,0-4.688-4.688" transform="translate(-650.659 -153.404)" fill="#b72929"/><path d="M850.541,182.362a5.434,5.434,0,1,1,5.434-5.434,5.441,5.441,0,0,1-5.434,5.434m0-10.122a4.688,4.688,0,1,0,4.688,4.688,4.693,4.693,0,0,0-4.687-4.688" transform="translate(-755.964 -153.404)" fill="#b72929"/><path d="M826.514,219.333l-.1-.74a6.933,6.933,0,0,1,2.489.026l-.289.689a6.609,6.609,0,0,0-2.1.026" transform="translate(-739.244 -195.439)" fill="#b72929"/><path d="M704.768,183.324a.372.372,0,0,1-.241-.089l-3-2.55a.373.373,0,0,1,.483-.569l3,2.55a.373.373,0,0,1-.242.658" transform="translate(-627.408 -161.038)" fill="#b72929"/><path d="M938.223,185.729a.373.373,0,0,1-.252-.649l2.226-2.027a.373.373,0,1,1,.5.552l-2.226,2.027a.373.373,0,0,1-.251.1" transform="translate(-838.925 -163.657)" fill="#b72929"/><g transform="translate(97.868 26.891)" opacity="0.5"><g clip-path="url(#q)"><path d="M999.853,283.126c.208,1.093.366,2.112.488,3.038-1.488.229-2.984.425-4.474.637q-.457.065-.915.133A42.183,42.183,0,0,0,986.178,289c-.11.041-.218.082-.326.126-.146.057-.289.115-.434.175q-.312.13-.619.273a6.031,6.031,0,0,0-1.8,1.206c-.039.04-.077.08-.114.121-.092.1-.176.207-.255.313-2.615,3.536,1.637,9.4-.771,13.265-1.274,2.046-4,2.684-6.4,2.514a23.7,23.7,0,0,1-6.065-1.438l-.383-.134c-.955-.338-1.905-.69-2.858-1.019q-.445-.153-.89-.3c-.519-.169-1.039-.326-1.561-.465-.318-.085-.639-.165-.96-.235-.542-.119-1.087-.216-1.636-.283l-.158-.02c-.4-.044-.807-.073-1.215-.082-.3-.006-.592,0-.889.012a17.9,17.9,0,0,0-8.078,2.789l-.188.11c-1.2.706-2.385,1.476-3.569,2.232-.563.36-1.127.716-1.693,1.061q-.1.065-.209.127-.414.252-.832.493a37.674,37.674,0,0,1-6.516,2.967q-1.308.451-2.646.8c-.621.165-1.958.367-1.958.367l-4.325-9.589-.233-.516-.342-.758-.43-.954.466-.1.279-.06.045-.011q1.688-.359,3.4-.69l.322-.062.427-.083h0l.356-.07,1.8-.345,1.26-.239,1.575-.3.247-.049.744-.144q.723-.142,1.444-.288l.019,0,.194-.04c.185-.037.37-.075.555-.114q.627-.13,1.252-.265l.181-.039.1-.022q.772-.168,1.541-.346c.1-.022.2-.046.306-.071l.219-.052c.188-.043.375-.089.563-.134h0l.513-.126.117-.028c.327-.081.655-.165.981-.25a56.5,56.5,0,0,0,10.7-3.829,38.563,38.563,0,0,0,4.248-2.42c.693-.458,1.437-1.053,1.488-1.882a2.726,2.726,0,0,0-.773-1.751c-.359-.455-.733-.907-1.113-1.359l-.409-.485q-.25-.293-.5-.586c-.534-.631-1.064-1.265-1.568-1.911-.064-.082-.128-.165-.191-.248s-.119-.157-.178-.236c-.309-.415-.605-.834-.882-1.263-.006-.008-.012-.017-.017-.025-.1-.152-.194-.3-.286-.46a13.814,13.814,0,0,1-.694-1.3c-.041-.087-.08-.173-.118-.259-.03-.07-.06-.139-.089-.209h0c-.015-.035-.028-.071-.042-.105-.045-.111-.089-.221-.129-.333,0,0,0,0,0,0a9.361,9.361,0,0,1-.557-2.519,3.323,3.323,0,0,1,.461-2.225,4.053,4.053,0,0,1,1.589-1.131,129.982,129.982,0,0,1,18.955-7.456l.568-.172.022-.006.381-.114.314-.093a5.759,5.759,0,0,0,2.228-1.013,4.539,4.539,0,0,0,1.2-2.016s0-.008,0-.013c.043-.128.084-.255.125-.383l.02-.064c.038-.122.074-.245.11-.367.02-.066.039-.134.059-.2q.2-.7.357-1.419c.024-.105.047-.211.068-.317.018-.083.035-.167.052-.25q.055-.274.1-.55.177-1,.275-2.013.111-1.149.121-2.3a41.528,41.528,0,0,1,4.639,3.933,5.63,5.63,0,0,1,2.576,2.771q.34.4.675.815a45.624,45.624,0,0,1,8.529,17.167l1.282,1.2a7.532,7.532,0,0,1-.494,2.3" transform="translate(-927.825 -254.94)" fill="#fff"/></g></g><path d="M1407.122,297.62c.03,3.931-3.735,8.105-7.911,8.719a4.391,4.391,0,0,1-4.358-1.479,4.886,4.886,0,0,1-.7-4.018c.013-.061.027-.123.042-.185s.03-.12.046-.179a8.552,8.552,0,0,1,.944-2.182,10.9,10.9,0,0,1,3.92-3.817,8.825,8.825,0,0,1,1.564-.694,7.375,7.375,0,0,1,1.054-.265,5.348,5.348,0,0,1,3.1.3,3.843,3.843,0,0,1,1.038.676,3.752,3.752,0,0,1,1.012,1.569,4.922,4.922,0,0,1,.249,1.553" transform="translate(-1246.97 -262.472)" fill="#487cff"/><path d="M1402.909,292.96c.029,3.93-3.736,8.105-7.912,8.719a4.6,4.6,0,0,1-3.913-.988,4.547,4.547,0,0,1-1.2-4.2c.016-.1.035-.2.057-.3a10.317,10.317,0,0,1,5.553-6.673,8.519,8.519,0,0,1,.965-.386,5.841,5.841,0,0,1,4.071,0,3.762,3.762,0,0,1,1.564,1.2,3.829,3.829,0,0,1,.554,1.038s0,0,0,0a4.893,4.893,0,0,1,.261,1.591" transform="translate(-1243.201 -258.302)" fill="#5081ff"/><path d="M1395.456,300.951a5.057,5.057,0,0,0-.009,2.142,3.688,3.688,0,0,0,.447,1.106,3.37,3.37,0,0,0,1.769,1.418,4.8,4.8,0,0,0,2.382.171,9.014,9.014,0,0,0,6.694-5.871,6.075,6.075,0,0,0,.319-1.849c0-.111,0-.22-.009-.327a3.764,3.764,0,0,0-.776-2.16,3.509,3.509,0,0,0-2.04-1.23,5.581,5.581,0,0,0-2.883.211,9.406,9.406,0,0,0-5.3,4.663,7.24,7.24,0,0,0-.6,1.725" transform="translate(-1248.156 -263.211)" fill="#769dff"/><path d="M1395.456,301.83a5.057,5.057,0,0,0-.009,2.142l10.826-7.512a3.509,3.509,0,0,0-2.04-1.23l-8.182,4.874a7.239,7.239,0,0,0-.6,1.725" transform="translate(-1248.156 -264.089)" fill="#c7d2ff"/><path d="M1400.618,333.826a3.369,3.369,0,0,0,1.768,1.418l9.076-5.7a6.067,6.067,0,0,0,.318-1.849c0-.111,0-.22-.008-.327Z" transform="translate(-1252.88 -292.837)" fill="#c7d2ff"/><path d="M1396.427,304.861a3.321,3.321,0,0,1-.222-.319,3.692,3.692,0,0,1-.446-1.106,5.056,5.056,0,0,1,.008-2.142,7.257,7.257,0,0,1,.6-1.726,9.406,9.406,0,0,1,5.3-4.663,5.581,5.581,0,0,1,2.883-.211,3.589,3.589,0,0,1,1.739.9l-.011-.014a3.51,3.51,0,0,0-2.04-1.23,5.58,5.58,0,0,0-2.883.211,9.407,9.407,0,0,0-5.3,4.663,7.254,7.254,0,0,0-.6,1.726,5.056,5.056,0,0,0-.009,2.142,3.692,3.692,0,0,0,.447,1.106,3.319,3.319,0,0,0,.533.662" transform="translate(-1248.155 -263.21)" fill="#487cff"/><path d="M1425.245,315.85a2.576,2.576,0,0,1,.687-.68,6.714,6.714,0,0,1,.946-.5l.045-.02.045-.02.054-.024.022-.01q.482-.215.765-.371a1.789,1.789,0,0,0,.485-.388,1.007,1.007,0,0,0,.242-.556v0c.038-.311-.037-.514-.222-.612a1.263,1.263,0,0,0-.873.018,2.8,2.8,0,0,0-.639.27q-.163.092-.333.211c-.211.147-.441.156-.542.024l-.006-.008c-.126-.164,0-.478.263-.657l.135-.09a5.069,5.069,0,0,1,.618-.341q.147-.068.294-.123l.037-.255a.738.738,0,0,1,.506-.53c.249-.072.429.049.4.272l-.037.279a2.174,2.174,0,0,1,.587-.013.873.873,0,0,1,.67.394,1.536,1.536,0,0,1,.144.965v0a2.164,2.164,0,0,1-.394,1.1,2.455,2.455,0,0,1-.748.678,9.368,9.368,0,0,1-1.072.505l-.051.021-.051.021a.118.118,0,0,1-.027.011.116.116,0,0,0-.027.011,5.53,5.53,0,0,0-.672.322,1.66,1.66,0,0,0-.453.384,1.158,1.158,0,0,0-.241.563v0c-.056.353.011.6.2.724a1.331,1.331,0,0,0,.981.048,2.8,2.8,0,0,0,.968-.415,3.585,3.585,0,0,0,.467-.373.528.528,0,0,1,.723-.1l.019.021a.543.543,0,0,1-.149.733q-.178.163-.363.3a4.6,4.6,0,0,1-.868.524,4.266,4.266,0,0,1-.518.2l-.043.329a.782.782,0,0,1-.583.626.347.347,0,0,1-.431-.424l.05-.339a2.261,2.261,0,0,1-.712-.045.926.926,0,0,1-.662-.521,1.817,1.817,0,0,1-.06-1.05l0-.009a2.649,2.649,0,0,1,.418-1.084" transform="translate(-1274.493 -278.339)" fill="#487cff"/><path d="M1423.839,314.3a2.574,2.574,0,0,1,.687-.68,6.714,6.714,0,0,1,.945-.5l.045-.02.045-.02.054-.024.022-.01q.482-.215.765-.372a1.79,1.79,0,0,0,.485-.388,1.006,1.006,0,0,0,.241-.556v0c.038-.311-.037-.514-.222-.612a1.262,1.262,0,0,0-.873.018,2.793,2.793,0,0,0-.639.27q-.163.092-.333.211c-.211.147-.441.156-.542.024l-.006-.008c-.126-.164,0-.478.263-.657l.136-.09a5.058,5.058,0,0,1,.618-.341q.147-.068.294-.123l.038-.255a.738.738,0,0,1,.506-.53c.249-.072.429.049.4.272l-.037.279a2.177,2.177,0,0,1,.588-.013.872.872,0,0,1,.669.394,1.536,1.536,0,0,1,.145.965v0a2.163,2.163,0,0,1-.395,1.1,2.457,2.457,0,0,1-.748.678,9.384,9.384,0,0,1-1.072.505l-.051.021-.051.021a.112.112,0,0,1-.027.011.12.12,0,0,0-.027.011,5.546,5.546,0,0,0-.671.322,1.661,1.661,0,0,0-.453.384,1.158,1.158,0,0,0-.241.563v0c-.057.353.011.6.2.724a1.331,1.331,0,0,0,.981.049,2.8,2.8,0,0,0,.967-.415,3.572,3.572,0,0,0,.468-.373.528.528,0,0,1,.722-.1l.019.021a.543.543,0,0,1-.149.733q-.178.163-.364.3a4.592,4.592,0,0,1-.868.524,4.254,4.254,0,0,1-.518.2l-.043.329a.781.781,0,0,1-.583.626.347.347,0,0,1-.43-.424l.05-.339a2.258,2.258,0,0,1-.712-.045.925.925,0,0,1-.662-.521,1.817,1.817,0,0,1-.061-1.05l0-.009a2.65,2.65,0,0,1,.418-1.083" transform="translate(-1273.236 -276.951)" fill="#fafafc"/><path d="M1185.182,483.367c-2.352,1.109-3,3.547-.985,5.514,2.262,2.214,6.463,2.566,8.8.764,2.045-1.579,1.568-4.072-.639-5.592a7.726,7.726,0,0,0-7.172-.685" transform="translate(-1058.214 -431.856)" fill="#487cff"/><path d="M1186.045,478.736c-2.352,1.109-3,3.547-.985,5.514,2.262,2.214,6.464,2.566,8.8.764,2.045-1.579,1.568-4.072-.639-5.592a7.726,7.726,0,0,0-7.172-.685" transform="translate(-1058.986 -427.714)" fill="#5081ff"/><path d="M1191.582,481.623a3.792,3.792,0,0,0-1.282.967,2.764,2.764,0,0,0-.458.769,2.528,2.528,0,0,0-.043,1.7,3.6,3.6,0,0,0,.979,1.5,6.76,6.76,0,0,0,6.544,1.33,4.551,4.551,0,0,0,1.248-.649q.1-.075.191-.153a2.824,2.824,0,0,0,.937-1.443,2.633,2.633,0,0,0-.192-1.776,4.185,4.185,0,0,0-1.435-1.625,7.054,7.054,0,0,0-5.189-1.045,5.435,5.435,0,0,0-1.3.428" transform="translate(-1064.186 -430.33)" fill="#769dff"/><path d="M1196.9,482.657a3.792,3.792,0,0,0-1.282.967l9.4,3.052a2.633,2.633,0,0,0-.192-1.776l-6.624-2.671a5.434,5.434,0,0,0-1.3.428" transform="translate(-1069.502 -431.363)" fill="#c7d2ff"/><path d="M1189.842,502.744a2.527,2.527,0,0,0-.043,1.7l7.523,2.83a4.556,4.556,0,0,0,1.248-.649q.1-.075.191-.153Z" transform="translate(-1064.186 -449.714)" fill="#c7d2ff"/><path d="M1189.825,483.978a2.494,2.494,0,0,1,.09-.277,2.777,2.777,0,0,1,.458-.769,3.789,3.789,0,0,1,1.282-.967,5.44,5.44,0,0,1,1.3-.428,7.054,7.054,0,0,1,5.189,1.046,4.186,4.186,0,0,1,1.435,1.625,2.692,2.692,0,0,1,.252,1.447.11.11,0,0,0,0-.013,2.633,2.633,0,0,0-.192-1.776,4.186,4.186,0,0,0-1.435-1.625,7.054,7.054,0,0,0-5.189-1.046,5.444,5.444,0,0,0-1.3.428,3.791,3.791,0,0,0-1.282.967,2.777,2.777,0,0,0-.458.769,2.482,2.482,0,0,0-.153.619" transform="translate(-1064.321 -430.33)" fill="#487cff"/><path d="M1210.839,496.493a1.931,1.931,0,0,1,.718.1,5.039,5.039,0,0,1,.73.336l.032.018.032.018.039.021.016.008q.347.19.569.288a1.344,1.344,0,0,0,.452.113.756.756,0,0,0,.442-.108l0,0c.2-.119.29-.256.264-.411a.948.948,0,0,0-.407-.513,2.1,2.1,0,0,0-.451-.259q-.129-.055-.277-.1c-.184-.059-.293-.193-.26-.312l0-.007c.041-.15.285-.217.511-.141l.115.04a3.76,3.76,0,0,1,.484.214c.072.038.14.078.207.12l.169-.093a.554.554,0,0,1,.546.062c.156.116.165.278.019.362l-.183.1a1.635,1.635,0,0,1,.275.345.654.654,0,0,1,.069.578,1.152,1.152,0,0,1-.511.524l0,0a1.623,1.623,0,0,1-.833.262,1.844,1.844,0,0,1-.744-.139,7.023,7.023,0,0,1-.788-.41l-.036-.021-.036-.021-.019-.011a.081.081,0,0,0-.018-.011,4.163,4.163,0,0,0-.5-.255,1.246,1.246,0,0,0-.435-.1.869.869,0,0,0-.446.112l0,0c-.237.127-.35.277-.34.45a1,1,0,0,0,.417.608,2.1,2.1,0,0,0,.687.389,2.679,2.679,0,0,0,.435.11c.242.04.415.213.385.388l0,.021c-.031.177-.258.288-.505.244q-.178-.032-.347-.079a3.454,3.454,0,0,1-.707-.28,3.18,3.18,0,0,1-.354-.219l-.216.124a.586.586,0,0,1-.638-.064.26.26,0,0,1,.058-.45l.225-.124a1.7,1.7,0,0,1-.3-.445.694.694,0,0,1,.011-.632,1.363,1.363,0,0,1,.6-.513l.006,0a1.988,1.988,0,0,1,.836-.243" transform="translate(-1081.738 -443.244)" fill="#487cff"/><path d="M1211.126,494.949a1.931,1.931,0,0,1,.718.1,5.051,5.051,0,0,1,.73.336l.032.018.032.018.039.021.016.008q.347.19.569.288a1.343,1.343,0,0,0,.452.113.755.755,0,0,0,.442-.108l0,0c.2-.119.29-.256.264-.411a.947.947,0,0,0-.407-.513,2.1,2.1,0,0,0-.451-.259q-.129-.055-.277-.1c-.184-.059-.293-.193-.26-.312l0-.007c.041-.15.285-.217.511-.141l.115.04a3.772,3.772,0,0,1,.484.214c.071.038.14.078.207.12l.169-.093a.553.553,0,0,1,.546.062c.156.116.165.278.019.362l-.183.1a1.627,1.627,0,0,1,.275.345.654.654,0,0,1,.069.578,1.151,1.151,0,0,1-.51.524l0,0a1.623,1.623,0,0,1-.833.262,1.841,1.841,0,0,1-.744-.139,7,7,0,0,1-.788-.41l-.036-.021-.036-.021a.089.089,0,0,1-.019-.011.086.086,0,0,0-.018-.011,4.206,4.206,0,0,0-.5-.254,1.248,1.248,0,0,0-.435-.1.869.869,0,0,0-.446.112l0,0c-.236.127-.35.277-.34.45a1,1,0,0,0,.417.608,2.1,2.1,0,0,0,.687.389,2.677,2.677,0,0,0,.435.11c.242.041.415.213.385.388l0,.021c-.031.177-.258.289-.505.244q-.178-.032-.347-.079a3.451,3.451,0,0,1-.707-.28,3.2,3.2,0,0,1-.354-.219l-.216.124a.586.586,0,0,1-.638-.064.26.26,0,0,1,.058-.45l.225-.124a1.7,1.7,0,0,1-.3-.445.694.694,0,0,1,.01-.632,1.364,1.364,0,0,1,.6-.513l.006,0a1.988,1.988,0,0,1,.836-.242" transform="translate(-1081.995 -441.862)" fill="#fafafc"/><path d="M1140.267,650l2.272,7.1a1.536,1.536,0,0,0,2.006,1.071l13.525-5.367a2,2,0,0,0,1.146-2.615l-3.306-7.878a1.728,1.728,0,0,0-2.441-.784l-12.332,6.273a1.883,1.883,0,0,0-.87,2.2" transform="translate(-1019.914 -573.655)" fill="#4574ec"/><path d="M1137.809,648.959l2.255,7.07a1.524,1.524,0,0,0,1.994,1.065l13.441-5.367a2,2,0,0,0,1.14-2.607l-3.279-7.845a1.712,1.712,0,0,0-2.425-.779l-12.259,6.266a1.882,1.882,0,0,0-.866,2.2" transform="translate(-1017.717 -572.739)" fill="#c6d6ff"/><path d="M1137.809,648.959l.458,1.434,15.755-7.534-.662-1.584a1.712,1.712,0,0,0-2.425-.779l-12.259,6.266a1.882,1.882,0,0,0-.866,2.2" transform="translate(-1017.717 -572.739)" fill="#6d97ff"/><path d="M1166.179,756.353a1.009,1.009,0,0,0,1.347.682,1.246,1.246,0,0,0,.63-1.54,1.006,1.006,0,0,0-1.361-.662,1.249,1.249,0,0,0-.616,1.519" transform="translate(-1043.113 -675.138)" fill="#6d97ff"/><path d="M1196.151,691.315l8.931-4.085a.331.331,0,0,0,.178-.417.3.3,0,0,0-.407-.147l-8.889,4.116a.312.312,0,0,0-.156.381.249.249,0,0,0,.343.152" transform="translate(-1069.659 -614.209)" fill="#6d97ff"/><path d="M1228.877,704.5l6.084-2.689a.329.329,0,0,0,.18-.419.3.3,0,0,0-.413-.154l-6.054,2.711a.317.317,0,0,0-.164.394.271.271,0,0,0,.368.158" transform="translate(-1098.908 -627.246)" fill="#6d97ff"/><path d="M1234.122,719.267l6.165-2.63a.328.328,0,0,0,.182-.421.313.313,0,0,0-.419-.162l-6.135,2.652a.316.316,0,0,0-.166.4.278.278,0,0,0,.373.165" transform="translate(-1103.595 -640.5)" fill="#6d97ff"/><path d="M969.228,616.884l4.009,3.744a3.031,3.031,0,0,1,1.162-2.443c1.289-1.061,3.436-1.507,5.3-2.431a7.194,7.194,0,0,0,2.169-1.56,5.485,5.485,0,0,0,1.343-2.853l-5.4-5.041a6.315,6.315,0,0,1-3.749,5.445c-2,1.135-4.17,1.844-4.713,3.835a4.036,4.036,0,0,0-.12,1.3" transform="translate(-866.986 -542.348)" fill="#6880fc"/><path d="M972.027,626.232l3.462,3.233c.535-4.244,8.168-2.771,9.685-8.21l-4.565-4.263c-1.078,5.848-8.35,4.713-8.582,9.24" transform="translate(-869.497 -551.911)" fill="#b2befe"/><path d="M1007.016,673.25a2.864,2.864,0,0,0,2.823.326c1.02-.4,1.277-1.305.593-1.943a2.863,2.863,0,0,0-2.956-.263c-.927.432-1.092,1.29-.46,1.88" transform="translate(-900.457 -600.299)" fill="#94a9ff"/><path d="M1046.133,619.052c.669.625,1.773.468,2.127-.788l-1.362-1.272a6.011,6.011,0,0,1-.765,2.06" transform="translate(-935.786 -551.911)" fill="#94a9ff"/><path d="M972.027,691.671l1.039.97a3.035,3.035,0,0,0-.613-2.493,3.373,3.373,0,0,0-.426,1.523" transform="translate(-869.497 -617.351)" fill="#94a9ff"/><path d="M1082.807,648.518a5.379,5.379,0,0,0,.942-1.894l-1.362-1.272c-.254,1.349-.272,2.52.419,3.166" transform="translate(-968.072 -577.28)" fill="#94a9ff"/><path d="M995.005,719.308l1.039.97a2.956,2.956,0,0,1,.549-1.409c-.584-.545-1.487-.512-1.587.439" transform="translate(-890.051 -642.724)" fill="#94a9ff"/><path d="M1014.858,675.879a.3.3,0,0,1,.081-.223,1.47,1.47,0,0,1,.255-.213l.014-.009.014-.009.016-.011.006,0a2.5,2.5,0,0,0,.218-.164.257.257,0,0,0,.09-.14.17.17,0,0,0-.07-.155h0a.449.449,0,0,0-.3-.123.867.867,0,0,0-.392.095.8.8,0,0,0-.2.132.77.77,0,0,0-.081.086.256.256,0,0,1-.242.064h-.006c-.117-.025-.17-.115-.11-.187l.032-.036a1.063,1.063,0,0,1,.17-.149q.046-.032.1-.061l-.073-.068c-.064-.06-.041-.143.051-.187h0a.275.275,0,0,1,.284.029l.08.074a1.478,1.478,0,0,1,.267-.064,1,1,0,0,1,.433.029.937.937,0,0,1,.37.219h0a.411.411,0,0,1,.167.3.326.326,0,0,1-.113.231,2.3,2.3,0,0,1-.3.223l-.015.01-.016.01-.008.005-.008.005a1.381,1.381,0,0,0-.19.141.22.22,0,0,0-.075.131.175.175,0,0,0,.072.145h0a.466.466,0,0,0,.307.127.987.987,0,0,0,.421-.094.773.773,0,0,0,.277-.186.5.5,0,0,0,.084-.126.253.253,0,0,1,.265-.1l.013,0c.113.019.177.094.141.167a.71.71,0,0,1-.061.1.881.881,0,0,1-.2.2,1.294,1.294,0,0,1-.152.093l.074.069c.064.06.038.141-.059.181a.3.3,0,0,1-.29-.036l-.076-.071a1.712,1.712,0,0,1-.3.067,1.043,1.043,0,0,1-.43-.03.883.883,0,0,1-.352-.205l0,0a.443.443,0,0,1-.167-.274" transform="translate(-907.152 -603.34)" fill="#fafafc"/><g transform="translate(107.076 66.078)" opacity="0.2"><g clip-path="url(#r)"><path d="M1015.116,629.771l.4.285,1.721,1.224,1.02.725,2.082,1.481.411.293a7.2,7.2,0,0,0,2.169-1.56l-.316-.4-3.127-3.97-.76-.966h0l-.34-.432a6.906,6.906,0,0,1-3.262,3.32" transform="translate(-1015.116 -626.451)" fill="#0d1d97"/></g></g><g transform="translate(102.234 73.233)" opacity="0.2"><g clip-path="url(#s)"><path d="M969.228,695.583l4.009,3.744a3.031,3.031,0,0,1,1.162-2.443l-.4-.207-3.511-1.81-.809-.417-.329-.169a4.036,4.036,0,0,0-.12,1.3" transform="translate(-969.22 -694.28)" fill="#0d1d97"/></g></g><path d="M1431.755,430.853a7.528,7.528,0,0,1-.494,2.3,5.822,5.822,0,0,1-1.268,1.951,7.82,7.82,0,0,1-2.718,1.724c-.247.1-.5.19-.754.274-3.046,1.009-6.556,1.085-8.662,2.518a4.814,4.814,0,0,0-2.042,4.064l-1.775-2.447-3.937-5.427a6.72,6.72,0,0,1,.381-2.012c1.054-2.842,4.189-3.36,7.138-4.538,1.944-.777,3.784-1.832,4.733-3.923a7.5,7.5,0,0,0,.626-2.679l7.491,7Z" transform="translate(-1261.366 -378.078)" fill="#487cff"/><path d="M1414.383,448.285l4.9,6.676c1.153-7.154,13.754-2.165,15.459-10.968l-7.477-7.1c-1.4,8.1-11.9,4.7-12.88,11.389" transform="translate(-1265.193 -390.812)" fill="#c6d6ff"/><path d="M1468.027,509.863a4.7,4.7,0,0,0,4.377,1.349c1.623-.366,2-1.769.9-2.973a4.677,4.677,0,0,0-4.488-1.172,1.623,1.623,0,0,0-.79,2.8" transform="translate(-1312.717 -453.434)" fill="#6d97ff"/><path d="M1526.686,439.52c1.015,1.017,2.67,1.032,3.11-.656l-2.075-1.97a6.543,6.543,0,0,1-1.035,2.625" transform="translate(-1365.65 -390.811)" fill="#6d97ff"/><path d="M1414.383,525.684l1.386,1.889c.241-1.579.247-3.117-.546-4.152a5.233,5.233,0,0,0-.84,2.262" transform="translate(-1265.193 -468.211)" fill="#6d97ff"/><path d="M1585.01,487.71a6.2,6.2,0,0,0,1.262-2.788l-2.392-2.271c-.234,1.978-.112,3.816,1.13,5.059" transform="translate(-1416.725 -431.741)" fill="#6d97ff"/><path d="M1446.078,578.253l1.556,2.12a4.86,4.86,0,0,1,.99-2.356c-.881-1.149-2.288-1.386-2.545.236" transform="translate(-1293.545 -516.224)" fill="#6d97ff"/><path d="M1479.985,512.613a.417.417,0,0,1,.131-.332,1.792,1.792,0,0,1,.4-.267l.021-.011.021-.011.024-.013.01-.006a3.062,3.062,0,0,0,.337-.2.327.327,0,0,0,.14-.195.313.313,0,0,0-.105-.261l0,0a.815.815,0,0,0-.451-.27,1.206,1.206,0,0,0-.595.043.993.993,0,0,0-.309.151.956.956,0,0,0-.125.111.351.351,0,0,1-.367.035l-.009,0c-.174-.07-.249-.222-.156-.317l.049-.048a1.3,1.3,0,0,1,.261-.185,1.5,1.5,0,0,1,.145-.069l-.105-.122a.157.157,0,0,1,.084-.272.437.437,0,0,1,.424.116l.116.134a2.052,2.052,0,0,1,.4-.029,1.6,1.6,0,0,1,.653.156,1.786,1.786,0,0,1,.561.435l0,0a.787.787,0,0,1,.255.509.426.426,0,0,1-.175.334,2.793,2.793,0,0,1-.472.271l-.024.012-.024.011-.013.006-.013.006a1.687,1.687,0,0,0-.294.172.287.287,0,0,0-.119.188.338.338,0,0,0,.108.252l0,0a.871.871,0,0,0,.474.292,1.4,1.4,0,0,0,.659-.031.952.952,0,0,0,.434-.222.635.635,0,0,0,.131-.18c.052-.106.237-.143.414-.08l.021.007c.179.063.282.2.226.311a.865.865,0,0,1-.094.145,1.064,1.064,0,0,1-.314.261,1.607,1.607,0,0,1-.239.109l.117.135a.159.159,0,0,1-.093.281.507.507,0,0,1-.46-.145l-.12-.139a2.4,2.4,0,0,1-.477.022,1.654,1.654,0,0,1-1.212-.607l0,0a.869.869,0,0,1-.248-.487" transform="translate(-1322.909 -456.522)" fill="#fafafc"/><g transform="translate(11.69 30.179)" opacity="0.5"><g clip-path="url(#t)"><path d="M173.881,332.354a6.529,6.529,0,0,1-1.517,3.868,5.065,5.065,0,0,1-.957.831,3.13,3.13,0,0,1-2.474.653c-1.483-.348-2.449-2.215-3.231-4.279-.032-.083-.063-.167-.094-.251l-.069-.187q-.1-.28-.2-.56c-.189-.538-.367-1.076-.543-1.59l-.038-.112-.066-.191c-.015-.041-.028-.082-.043-.123-.024-.069-.047-.136-.072-.2s-.037-.105-.056-.157-.037-.1-.055-.151-.041-.112-.062-.167c-.063-.171-.128-.337-.192-.495-.112-.277-.226-.535-.343-.767a5.145,5.145,0,0,0-.284-.5c-.024-.038-.05-.075-.075-.111-.077-.109-.155-.215-.236-.32l-.042-.053a8.918,8.918,0,0,0-1.661-1.622l-.1-.076c-.087-.063-.174-.126-.263-.186l-.169-.114c-3.04-1.992-7.223-2.4-10.993-2.23-.971.044-1.982.1-2.991.107-2.918.026-5.823-.323-7.742-2.378-2.279-2.437-2.124-6.254-3.631-9.232a11.91,11.91,0,0,0-3.876-4.239c-5.511-3.87-12.7-4.292-19.424-3.931q-.778.041-1.559.093a73.355,73.355,0,0,1,20.363-13.648q4.468-2.095,8.837-3.921a14.781,14.781,0,0,1,7.009,5.366c1.7,2.614,2.19,5.756,2.855,8.834.025.114.05.228.075.341.174.784.363,1.562.59,2.325q.16.538.347,1.066.361,1.017.816,2,.188.407.392.8a23.306,23.306,0,0,0,3.452,4.988q.717.79,1.5,1.512a22.543,22.543,0,0,0,2.64,2.081c.444.3.9.582,1.362.855q.236.141.474.276a64.713,64.713,0,0,1,7.208,4.237c.408.311.8.639,1.178.99q.464.432.89.91a13.084,13.084,0,0,1,2.45,4.675,14.329,14.329,0,0,1,.649,3.777,10.44,10.44,0,0,1-.035,1.209" transform="translate(-110.825 -286.11)" fill="#fff"/></g></g><path d="M584.919,660.016c.944,2.188-.092,4.254-2.666,4.387-2.9.15-6-2.156-6.509-4.809-.448-2.325,1.391-3.749,3.83-3.456a7.082,7.082,0,0,1,5.344,3.878" transform="translate(-514.954 -586.894)" fill="#487cff"/><path d="M587.134,656.31c.944,2.188-.092,4.254-2.666,4.387-2.9.15-6-2.156-6.509-4.809-.448-2.325,1.391-3.749,3.83-3.456a7.081,7.081,0,0,1,5.344,3.878" transform="translate(-516.935 -583.579)" fill="#5081ff"/><path d="M591.558,659.311a3.475,3.475,0,0,1,.295,1.443,2.527,2.527,0,0,1-.152.806,2.315,2.315,0,0,1-1,1.194,3.3,3.3,0,0,1-1.582.437,6.2,6.2,0,0,1-5.3-3.054,4.17,4.17,0,0,1-.464-1.2c-.016-.075-.029-.148-.038-.221a2.588,2.588,0,0,1,.231-1.56,2.412,2.412,0,0,1,1.209-1.1,3.836,3.836,0,0,1,1.972-.247,6.465,6.465,0,0,1,4.2,2.428,4.98,4.98,0,0,1,.635,1.083" transform="translate(-521.756 -586.598)" fill="#769dff"/><path d="M593.778,661.669a3.474,3.474,0,0,1,.295,1.443l-8.31-3.6a2.412,2.412,0,0,1,1.209-1.1l6.172,2.181a4.978,4.978,0,0,1,.635,1.082" transform="translate(-523.976 -588.957)" fill="#c7d2ff"/><path d="M591.961,686.514a2.316,2.316,0,0,1-1,1.194l-6.886-2.617a4.176,4.176,0,0,1-.464-1.2q-.023-.112-.038-.221Z" transform="translate(-522.016 -611.554)" fill="#c7d2ff"/><path d="M593.607,662.077a2.311,2.311,0,0,0,.106-.245,2.539,2.539,0,0,0,.152-.806,3.477,3.477,0,0,0-.295-1.442,4.981,4.981,0,0,0-.635-1.082,6.464,6.464,0,0,0-4.2-2.428,3.836,3.836,0,0,0-1.972.247,2.469,2.469,0,0,0-1.05.841l.005-.011a2.412,2.412,0,0,1,1.209-1.1,3.836,3.836,0,0,1,1.971-.247,6.465,6.465,0,0,1,4.2,2.428,4.99,4.99,0,0,1,.635,1.083,3.475,3.475,0,0,1,.295,1.443,2.536,2.536,0,0,1-.152.806,2.283,2.283,0,0,1-.27.518" transform="translate(-523.932 -586.598)" fill="#487cff"/><path d="M611.062,668.493a1.768,1.768,0,0,0-.555-.366,4.614,4.614,0,0,0-.705-.212l-.033-.007-.033-.007-.039-.009-.016,0q-.354-.079-.566-.147a1.23,1.23,0,0,1-.379-.2.692.692,0,0,1-.238-.342v0q-.1-.306.067-.442a.867.867,0,0,1,.591-.106,1.917,1.917,0,0,1,.467.1q.122.04.253.1c.162.071.318.045.368-.057l0-.006c.063-.128-.064-.322-.266-.407l-.1-.042a3.44,3.44,0,0,0-.462-.146q-.108-.026-.215-.043l-.06-.167a.507.507,0,0,0-.413-.289c-.178-.015-.282.091-.232.237l.062.183a1.494,1.494,0,0,0-.4.07.6.6,0,0,0-.4.356,1.056,1.056,0,0,0,.033.67v0a1.488,1.488,0,0,0,.414.685,1.687,1.687,0,0,0,.6.356,6.435,6.435,0,0,0,.79.2l.037.007.037.007.019,0,.019,0a3.831,3.831,0,0,1,.5.127,1.146,1.146,0,0,1,.357.2.8.8,0,0,1,.239.347v0a.462.462,0,0,1-.039.515.916.916,0,0,1-.655.165,1.922,1.922,0,0,1-.708-.149,2.451,2.451,0,0,1-.365-.188.363.363,0,0,0-.5.033l-.01.016a.373.373,0,0,0,.2.474q.142.086.286.156a3.158,3.158,0,0,0,.656.236,2.927,2.927,0,0,0,.376.064l.074.216a.537.537,0,0,0,.477.343.239.239,0,0,0,.233-.344l-.079-.222a1.55,1.55,0,0,0,.473-.126.636.636,0,0,0,.376-.44,1.249,1.249,0,0,0-.1-.716l0-.006a1.823,1.823,0,0,0-.428-.674" transform="translate(-543.617 -595.469)" fill="#487cff"/><path d="M611.8,667.257a1.772,1.772,0,0,0-.555-.366,4.61,4.61,0,0,0-.705-.212l-.033-.007-.033-.007-.039-.009-.016,0q-.354-.079-.566-.147a1.235,1.235,0,0,1-.379-.2.693.693,0,0,1-.238-.342v0c-.067-.2-.044-.351.067-.442a.867.867,0,0,1,.591-.106,1.919,1.919,0,0,1,.467.1q.122.04.253.1c.162.071.318.045.368-.057l0-.006c.063-.128-.064-.322-.266-.407l-.1-.042a3.456,3.456,0,0,0-.463-.146q-.108-.026-.215-.043l-.06-.167a.507.507,0,0,0-.413-.289c-.177-.015-.282.091-.232.237l.062.183a1.5,1.5,0,0,0-.4.07.6.6,0,0,0-.4.356,1.056,1.056,0,0,0,.033.67v0a1.486,1.486,0,0,0,.414.685,1.685,1.685,0,0,0,.6.356,6.447,6.447,0,0,0,.79.2l.037.007.037.007.019,0,.019,0a3.858,3.858,0,0,1,.5.127,1.149,1.149,0,0,1,.357.2.8.8,0,0,1,.239.347v0a.461.461,0,0,1-.039.515.916.916,0,0,1-.655.165,1.92,1.92,0,0,1-.708-.149,2.443,2.443,0,0,1-.366-.188.363.363,0,0,0-.5.033l-.01.016a.373.373,0,0,0,.2.474q.142.086.286.156a3.17,3.17,0,0,0,.655.236,2.919,2.919,0,0,0,.376.064l.074.216a.537.537,0,0,0,.477.343.239.239,0,0,0,.233-.344l-.079-.222a1.553,1.553,0,0,0,.473-.126.637.637,0,0,0,.376-.44,1.251,1.251,0,0,0-.1-.716l0-.006a1.827,1.827,0,0,0-.428-.674" transform="translate(-544.277 -594.363)" fill="#fafafc"/><path d="M366.434,360.992a2.19,2.19,0,0,1,1.408,3.583,4.972,4.972,0,0,1-5.825,1.7c-1.591-.788-1.606-2.533-.324-3.855a5.311,5.311,0,0,1,4.741-1.43" transform="translate(-322.719 -322.812)" fill="#487cff"/><path d="M365.228,357.988a2.19,2.19,0,0,1,1.408,3.583,4.972,4.972,0,0,1-5.825,1.7c-1.591-.788-1.606-2.533-.324-3.855a5.31,5.31,0,0,1,4.741-1.43" transform="translate(-321.64 -320.125)" fill="#5081ff"/><path d="M368.206,360.172a2.607,2.607,0,0,1,.995.479,1.9,1.9,0,0,1,.412.456,1.738,1.738,0,0,1,.258,1.139,2.477,2.477,0,0,1-.457,1.143,4.646,4.646,0,0,1-4.231,1.779,3.131,3.131,0,0,1-.929-.269q-.078-.037-.15-.078a1.942,1.942,0,0,1-.826-.846,1.808,1.808,0,0,1-.11-1.223,2.876,2.876,0,0,1,.748-1.289,4.849,4.849,0,0,1,3.356-1.4,3.738,3.738,0,0,1,.934.113" transform="translate(-324.809 -322.08)" fill="#769dff"/><path d="M368.206,360.172a2.607,2.607,0,0,1,.995.479l-5.923,3.325a1.808,1.808,0,0,1-.11-1.223l4.1-2.694a3.738,3.738,0,0,1,.934.113" transform="translate(-324.809 -322.08)" fill="#c7d2ff"/><path d="M378.046,369.995a1.738,1.738,0,0,1,.258,1.139l-4.688,2.922a3.135,3.135,0,0,1-.929-.269q-.078-.037-.15-.078Z" transform="translate(-333.242 -330.968)" fill="#c7d2ff"/><path d="M369.8,361.5a1.731,1.731,0,0,0-.1-.175,1.9,1.9,0,0,0-.412-.456,2.607,2.607,0,0,0-.995-.479,3.741,3.741,0,0,0-.934-.113,4.849,4.849,0,0,0-3.356,1.4,2.876,2.876,0,0,0-.748,1.289,1.85,1.85,0,0,0,.025,1.009l0-.008a1.809,1.809,0,0,1-.11-1.223,2.876,2.876,0,0,1,.748-1.289,4.848,4.848,0,0,1,3.356-1.4,3.742,3.742,0,0,1,.934.113,2.607,2.607,0,0,1,.995.479,1.9,1.9,0,0,1,.412.456,1.714,1.714,0,0,1,.187.4" transform="translate(-324.809 -322.08)" fill="#487cff"/><path d="M379.351,372.672a1.326,1.326,0,0,0-.47.165,3.457,3.457,0,0,0-.447.325l-.019.016-.019.017-.023.019-.01.008q-.208.175-.345.271a.92.92,0,0,1-.289.137.519.519,0,0,1-.312-.013h0c-.152-.053-.23-.133-.233-.241a.651.651,0,0,1,.205-.4,1.441,1.441,0,0,1,.269-.235q.079-.055.173-.107c.116-.065.171-.169.133-.246l0,0c-.048-.1-.221-.108-.364-.026l-.072.043a2.621,2.621,0,0,0-.3.209q-.064.053-.123.109l-.126-.04a.381.381,0,0,0-.36.115c-.09.1-.074.21.036.246l.137.046a1.119,1.119,0,0,0-.138.269.449.449,0,0,0,.032.4.791.791,0,0,0,.415.284h0a1.115,1.115,0,0,0,.6.064,1.268,1.268,0,0,0,.483-.194,4.842,4.842,0,0,0,.476-.383l.021-.019.021-.019.011-.01.011-.01a2.818,2.818,0,0,1,.3-.239.855.855,0,0,1,.28-.123.6.6,0,0,1,.315.015h0c.177.053.274.139.29.257a.686.686,0,0,1-.2.466,1.442,1.442,0,0,1-.411.355,1.83,1.83,0,0,1-.278.133c-.158.06-.251.2-.207.313l.005.013a.28.28,0,0,0,.373.1q.116-.046.223-.1a2.369,2.369,0,0,0,.439-.284,2.19,2.19,0,0,0,.209-.2l.162.054a.4.4,0,0,0,.421-.129.179.179,0,0,0-.1-.3l-.168-.053a1.164,1.164,0,0,0,.14-.34.477.477,0,0,0-.092-.424.936.936,0,0,0-.473-.265h0a1.365,1.365,0,0,0-.6-.051" transform="translate(-336.838 -333.032)" fill="#487cff"/><path d="M378.949,371.671a1.327,1.327,0,0,0-.47.165,3.469,3.469,0,0,0-.446.325l-.019.017-.019.016-.023.019-.01.008q-.208.175-.345.271a.922.922,0,0,1-.289.137.518.518,0,0,1-.312-.013h0c-.152-.053-.23-.133-.233-.241a.651.651,0,0,1,.205-.4,1.444,1.444,0,0,1,.269-.235q.079-.055.173-.107c.116-.065.171-.169.133-.246l0,0c-.048-.1-.221-.108-.364-.026l-.072.043a2.617,2.617,0,0,0-.3.21q-.064.053-.123.109l-.126-.04a.381.381,0,0,0-.36.115c-.09.1-.074.21.036.247l.137.046a1.117,1.117,0,0,0-.138.269.45.45,0,0,0,.032.4.791.791,0,0,0,.415.284h0a1.115,1.115,0,0,0,.6.064,1.266,1.266,0,0,0,.483-.194,4.846,4.846,0,0,0,.476-.383l.021-.019.021-.019.011-.01.011-.01a2.837,2.837,0,0,1,.3-.239.854.854,0,0,1,.28-.123.6.6,0,0,1,.315.015h0c.176.053.273.139.29.257a.686.686,0,0,1-.2.466,1.442,1.442,0,0,1-.411.355,1.833,1.833,0,0,1-.278.132c-.158.06-.251.2-.207.313l.005.013a.28.28,0,0,0,.373.1q.116-.046.223-.1a2.37,2.37,0,0,0,.439-.284,2.19,2.19,0,0,0,.209-.2l.162.054a.4.4,0,0,0,.421-.129.179.179,0,0,0-.1-.3l-.168-.053a1.165,1.165,0,0,0,.14-.34.477.477,0,0,0-.092-.424.937.937,0,0,0-.473-.265h0a1.364,1.364,0,0,0-.6-.051" transform="translate(-336.479 -332.137)" fill="#fafafc"/><path d="M464.426,427.646l-3.264,10.811a2.007,2.007,0,0,1-2.884,1.394l-11.951-6.4a1.86,1.86,0,0,1-.447-2.24l2.647-7.263c.317-.869,1.073-1.477,1.71-1.359l12.673,2.347a2.051,2.051,0,0,1,1.517,2.712" transform="translate(-398.701 -377.999)" fill="#4574ec"/><path d="M458.066,425.721l-3.265,10.86a2.035,2.035,0,0,1-2.914,1.408l-12.1-6.376a1.852,1.852,0,0,1-.458-2.242l2.651-7.284c.317-.872,1.079-1.484,1.722-1.369l12.821,2.291a2.054,2.054,0,0,1,1.546,2.712" transform="translate(-392.839 -376.328)" fill="#c6d6ff"/><path d="M477.335,425.721l-.661,2.2-15.97-4.345.542-1.49c.317-.872,1.079-1.484,1.723-1.369l12.821,2.291a2.054,2.054,0,0,1,1.546,2.712" transform="translate(-412.109 -376.328)" fill="#6d97ff"/><path d="M553.043,522.825a1.387,1.387,0,0,1-1.868.991,1.724,1.724,0,0,1-.813-2.091,1.4,1.4,0,0,1,1.784-1.006,1.7,1.7,0,0,1,.9,2.107" transform="translate(-492.231 -465.722)" fill="#6d97ff"/><path d="M470.709,467.725l-7.506-2.514c-.1-.035-.143-.185-.088-.335s.182-.246.285-.213l7.53,2.392a.359.359,0,0,1-.221.67" transform="translate(-414.243 -415.645)" fill="#6d97ff"/><path d="M462.667,481.05l-4.538-1.738c-.1-.039-.14-.194-.085-.346s.182-.245.284-.207l4.553,1.662a.311.311,0,0,1,.132.4c-.059.175-.215.276-.347.226" transform="translate(-409.706 -428.252)" fill="#6d97ff"/><path d="M457.5,495.51,453,493.563c-.1-.044-.138-.2-.082-.358s.182-.244.284-.2l4.511,1.869a.331.331,0,0,1,.129.419c-.06.177-.216.275-.346.219" transform="translate(-405.121 -440.992)" fill="#6d97ff"/><path d="M662.8,628.07v17.743a3.77,3.77,0,0,1-3.77,3.771H624.216a3.77,3.77,0,0,1-3.771-3.771V628.07a3.77,3.77,0,0,1,3.771-3.771h34.816a3.77,3.77,0,0,1,3.77,3.771" transform="translate(-555 -558.448)" fill="#4574ec"/><path d="M662.8,618.686v17.743a3.77,3.77,0,0,1-3.77,3.771H624.216a3.77,3.77,0,0,1-3.771-3.771V618.686a3.77,3.77,0,0,1,3.771-3.771h34.816a3.77,3.77,0,0,1,3.77,3.771" transform="translate(-555 -550.054)" fill="#c6d6ff"/><path d="M662.8,618.686v2.8H620.445v-2.8a3.77,3.77,0,0,1,3.771-3.771h34.816a3.77,3.77,0,0,1,3.77,3.771" transform="translate(-555 -550.054)" fill="#6b83fe"/><rect width="8.209" height="10.214" transform="translate(69.8 75.213)" fill="#fff"/><path d="M685.091,724.913a2.079,2.079,0,1,1-2.079-2.079,2.079,2.079,0,0,1,2.079,2.079" transform="translate(-609.108 -646.589)" fill="#6b83fe"/><path d="M673.9,769.8a3.574,3.574,0,0,0-7.149,0Z" transform="translate(-596.426 -685.401)" fill="#6b83fe"/><path d="M788.615,718.908H766.375a.643.643,0,0,1,0-1.287h22.241a.643.643,0,1,1,0,1.287" transform="translate(-684.961 -641.926)" fill="#6b83fe"/><path d="M780.661,756.658H766.375a.643.643,0,0,1,0-1.287h14.286a.643.643,0,1,1,0,1.287" transform="translate(-684.961 -675.694)" fill="#6b83fe"/><path d="M775.7,794.408h-9.323a.643.643,0,0,1,0-1.287H775.7a.643.643,0,0,1,0,1.287" transform="translate(-684.962 -709.462)" fill="#6b83fe"/><path d="M907.677,524.472a21.569,21.569,0,0,1-9.735-3.44,2.185,2.185,0,0,0-2.4,0,21.568,21.568,0,0,1-9.735,3.44,2.187,2.187,0,0,0-1.975,2.333,27.434,27.434,0,0,0,11.65,20.521,2.194,2.194,0,0,0,2.52,0,27.433,27.433,0,0,0,11.65-20.521,2.187,2.187,0,0,0-1.975-2.333" transform="translate(-790.599 -465.753)" fill="#2e5ecc"/><path d="M903.084,521.174a2.187,2.187,0,0,0-1.975-2.333,21.572,21.572,0,0,1-9.735-3.439,2.184,2.184,0,0,0-2.4,0,21.571,21.571,0,0,1-9.735,3.439,2.187,2.187,0,0,0-1.975,2.333,27.433,27.433,0,0,0,11.65,20.521,2.195,2.195,0,0,0,2.52,0,27.434,27.434,0,0,0,11.65-20.521" transform="translate(-784.724 -460.716)" fill="#4574ec"/><path d="M911.016,532.526a2.192,2.192,0,0,0-1.959-2.359,19.94,19.94,0,0,1-8.7-3.059,2.2,2.2,0,0,0-2.386,0,19.939,19.939,0,0,1-8.7,3.059,2.192,2.192,0,0,0-1.959,2.359,24.923,24.923,0,0,0,3.075,10.1,25.19,25.19,0,0,0,7.52,8.311,2.184,2.184,0,0,0,2.506,0,25.189,25.189,0,0,0,7.52-8.311,24.925,24.925,0,0,0,3.075-10.1" transform="translate(-793.719 -471.194)" fill="#c6d6ff"/><path d="M911.017,532.53c0,.012,0,.024,0,.037a2.144,2.144,0,0,0-1.913-1.924,19.517,19.517,0,0,1-8.5-2.99,2.149,2.149,0,0,0-2.332,0,19.528,19.528,0,0,1-8.5,2.99,2.144,2.144,0,0,0-1.916,2.306,24.378,24.378,0,0,0,3.007,9.874,24.627,24.627,0,0,0,7.352,8.126,2.122,2.122,0,0,0,1.095.381,2.176,2.176,0,0,1-1.387-.39,25.177,25.177,0,0,1-7.519-8.311,24.911,24.911,0,0,1-3.076-10.1,2.193,2.193,0,0,1,1.959-2.36,19.941,19.941,0,0,0,8.7-3.058,2.2,2.2,0,0,1,2.386,0,19.942,19.942,0,0,0,8.7,3.058,2.194,2.194,0,0,1,1.96,2.36" transform="translate(-793.719 -471.198)" fill="#2e5ecc"/><path d="M966.553,583.827v0a1.475,1.475,0,0,0-.145-.583h0a1.463,1.463,0,0,0-.315-.429h0a.327.327,0,0,0-.027-.026,1.453,1.453,0,0,0-.14-.112h0a1.468,1.468,0,0,0-.849-.269h-.74v-1.335a2.891,2.891,0,0,0-2.887-2.887,2.79,2.79,0,0,0-.534.051,2.893,2.893,0,0,0-2.162,1.806h0a2.874,2.874,0,0,0-.19,1.029V582.4h-.646a1.482,1.482,0,0,0-1.48,1.48v5.113a1.465,1.465,0,0,0,.134.616,1.48,1.48,0,0,0,1.035.83,1.425,1.425,0,0,0,.3.034h7.175a1.48,1.48,0,0,0,1.436-1.12,1.439,1.439,0,0,0,.044-.36v-5.113c0-.018,0-.037,0-.055m-6.705-2.76a1.6,1.6,0,1,1,3.2,0V582.4h-3.2Z" transform="translate(-855.549 -517.193)" fill="#2e5ecc"/><path d="M977.019,578.707a.643.643,0,0,1-.643-.643v-2.625a1.6,1.6,0,0,0-3.2,0v2.052a.643.643,0,0,1-1.287,0v-2.052a2.887,2.887,0,1,1,5.773,0v2.625a.643.643,0,0,1-.643.643" transform="translate(-869.373 -512.159)" fill="#4574ec"/><path d="M960.384,620.652h-7.159a1.48,1.48,0,0,1-1.48-1.48v-5.113a1.48,1.48,0,0,1,1.48-1.48h7.159a1.48,1.48,0,0,1,1.48,1.48v5.113a1.48,1.48,0,0,1-1.48,1.48" transform="translate(-851.354 -547.964)" fill="#6b83fe"/><path d="M986.64,626.491a1.686,1.686,0,1,1-1.686-1.686,1.686,1.686,0,0,1,1.686,1.686" transform="translate(-879.551 -558.9)" fill="#c6d6ff"/><path d="M995.058,643.478a.5.5,0,0,1-.495-.495v-2.97a.495.495,0,1,1,.99,0v2.97a.5.5,0,0,1-.495.495" transform="translate(-889.656 -572.061)" fill="#c6d6ff"/></g></g></g></g><text transform="translate(8146 -2851.37)" fill="none" stroke="#fafafa" stroke-width="0.5" font-size="30" font-family="DarwinPro-Bold, Darwin Pro" font-weight="700"><tspan x="0" y="0">Payment Messaging </tspan><tspan x="0" y="33">Gateway Platform</tspan></text><text transform="translate(8147 -2855.66)" fill="#3f3cce" font-size="30" font-family="DarwinPro-Black, Darwin Pro" font-weight="800"><tspan x="0" y="0">Payment Messaging </tspan><tspan x="0" y="33">Gateway Platform</tspan></text></g></g></svg>