<svg xmlns="http://www.w3.org/2000/svg" width="102" height="102" viewBox="0 0 102 102"><g transform="translate(526 -644)"><g transform="translate(-689 479)"><circle cx="51" cy="51" r="51" transform="translate(163 165)" fill="#f6faff"/><g transform="translate(187.62 183.539)"><g transform="translate(0.201)"><path d="M23.994,0h.06a22.39,22.39,0,0,0,3.412,3.722A46.973,46.973,0,0,0,38.178,10.77a26.709,26.709,0,0,1,8.92,7.681c-.179,1.227-.139,2.481-.375,3.7a23.906,23.906,0,0,1-7.511,13.064c-1.9,1.836-4.18,3.21-6.248,4.845-1.449-.832-2.707-1.949-4.111-2.852a19.018,19.018,0,0,0-4.42-2.279,12.991,12.991,0,0,0-6.361.06,9.134,9.134,0,0,0-6.419,10.163,5.936,5.936,0,0,0,2.213,3.757,19.431,19.431,0,0,1-7.247-.167c-.869-.2-1.669-.625-2.551-.772a7.642,7.642,0,0,1-.713-.994,44.033,44.033,0,0,1-2.265-5.687A28.564,28.564,0,0,1,.418,30.73,25.835,25.835,0,0,1,4.374,19.944,29.529,29.529,0,0,1,16.854,9.849a11.733,11.733,0,0,0,3.892-2.541A10.611,10.611,0,0,0,23.994,0M23.98,1.171a10.869,10.869,0,0,1-3.759,7,31.744,31.744,0,0,1-5.855,3.182,25.015,25.015,0,0,0-8.829,7.715,8.92,8.92,0,0,0-1.423,2.7,2.613,2.613,0,0,0-.169,1.8,1.471,1.471,0,0,0,1.443.766c1.786.1,3.432-.709,5.04-1.366C16.07,20.46,21.3,16.409,24.046,10.762a1.719,1.719,0,0,0-.488-1.9A6.163,6.163,0,0,0,25.215,3.4a2.488,2.488,0,0,0-.375-1.205c-.018-.6-.435-1.119-.488-1.721C24.185.677,23.956.875,23.98,1.171Z" transform="translate(-0.201)" fill="#008ece"/></g><g transform="translate(4.114 0.472)"><path d="M39.485,3.039c-.024-.3.206-.494.373-.7.052.6.47,1.121.488,1.721A14.815,14.815,0,0,1,39.9,7.737a8.219,8.219,0,0,1-2,3.2c.171.385.494.766.373,1.213a5.474,5.474,0,0,1-.7,1.338,22.7,22.7,0,0,1-5.448,5.655,41.459,41.459,0,0,1-8.874,5,5.117,5.117,0,0,1-2.747.363c-.46-.067-.657-.526-.885-.867a8.92,8.92,0,0,1,1.423-2.7,25.015,25.015,0,0,1,8.829-7.715,31.744,31.744,0,0,0,5.855-3.182A10.869,10.869,0,0,0,39.485,3.039Z" transform="translate(-19.62 -2.34)" fill="#f0f0f0"/><path d="M62.861,171.944a12.992,12.992,0,0,1,6.361-.06,19.019,19.019,0,0,1,4.42,2.279c1.4.9,2.662,2.019,4.111,2.852,1.024.564,2.179,1.233,3.39.9a11.4,11.4,0,0,0,4.061-2.14,25.978,25.978,0,0,1,5.161-3.077,3.274,3.274,0,0,1,3.835,1.036c1.175,1.582,1.209,3.676,1.064,5.558-.314,2.932-1.651,6.014-4.353,7.469a2.615,2.615,0,0,1-3.2-.667,33.249,33.249,0,0,0-5.51-5.163,3.8,3.8,0,0,0-3.531-.2c-2.179.828-4.019,2.306-6.034,3.442a25.456,25.456,0,0,1-7.755,3.126,9.014,9.014,0,0,1-6.221-1.441,5.936,5.936,0,0,1-2.213-3.757A9.134,9.134,0,0,1,62.861,171.944Z" transform="translate(-48.903 -137.423)" fill="#f0f0f0"/><path d="M146.271,234.183a5.051,5.051,0,0,1,4.5.859,3.1,3.1,0,0,1,1.167,2.4c-.081.736-1.221.707-1.542.179-.173-.508-.333-1.1-.869-1.34a3.994,3.994,0,0,0-3.452-.141c-1.064.5-1.834,1.449-2.878,1.983-.3.173-.794.2-.975-.159a1.41,1.41,0,0,1,.21-1.221A7.931,7.931,0,0,1,146.271,234.183Z" transform="translate(-117.455 -187.33)" fill="#f0f0f0"/><path d="M129.977,264.485c.27-.163.635-.353.925-.111a1.011,1.011,0,0,1-.119,1.312,5.726,5.726,0,0,1-2.529,1.483,18.005,18.005,0,0,1-8.42,1.169,11.12,11.12,0,0,1-5.046-1.9,1.194,1.194,0,0,1-.431-1.455.94.94,0,0,1,1.06-.377c1.014.2,1.788.959,2.761,1.274C122.053,267.365,126.44,266.442,129.977,264.485Z" transform="translate(-95.182 -211.473)" fill="#f0f0f0"/></g><g transform="translate(3.849 2.193)"><path d="M39.294,10.88a2.488,2.488,0,0,1,.375,1.205,6.163,6.163,0,0,1-1.657,5.464,1.719,1.719,0,0,1,.488,1.9c-2.745,5.647-7.977,9.7-13.618,12.209-1.608.657-3.255,1.463-5.04,1.366a1.471,1.471,0,0,1-1.443-.766,2.613,2.613,0,0,1,.169-1.8c.228.341.425.8.885.867a5.117,5.117,0,0,0,2.747-.363,41.459,41.459,0,0,0,8.874-5,22.7,22.7,0,0,0,5.448-5.655,5.474,5.474,0,0,0,.7-1.338c.121-.447-.2-.828-.373-1.213a8.219,8.219,0,0,0,2-3.2A14.815,14.815,0,0,0,39.294,10.88Z" transform="translate(-18.302 -10.88)" fill="#a0d8f1"/></g><g transform="translate(4.068 18.451)"><path d="M62.42,91.55a25.177,25.177,0,0,1,5.462,14.869v1.872a26.25,26.25,0,0,1-19.333,24.37,27.9,27.9,0,0,1-5.925.9H40.749a27.8,27.8,0,0,1-6.04-.937,26.1,26.1,0,0,1-15.319-11.55c.883.147,1.683.576,2.551.772a19.431,19.431,0,0,0,7.247.167,9.014,9.014,0,0,0,6.221,1.441,25.456,25.456,0,0,0,7.755-3.126c2.015-1.137,3.855-2.614,6.034-3.442a3.8,3.8,0,0,1,3.531.2,33.249,33.249,0,0,1,5.51,5.163,2.615,2.615,0,0,0,3.2.667c2.7-1.455,4.039-4.537,4.353-7.469.145-1.882.111-3.976-1.064-5.558A3.274,3.274,0,0,0,60.9,108.85a25.979,25.979,0,0,0-5.161,3.077,11.4,11.4,0,0,1-4.061,2.14c-1.211.329-2.366-.341-3.39-.9,2.068-1.634,4.343-3.009,6.248-4.845a23.906,23.906,0,0,0,7.511-13.064c.236-1.223.2-2.477.375-3.7M48.252,120.424a7.931,7.931,0,0,0-3.839,2.562,1.411,1.411,0,0,0-.21,1.221c.181.363.671.333.975.159,1.044-.534,1.814-1.479,2.878-1.983a3.994,3.994,0,0,1,3.452.141c.536.242.7.832.869,1.34.32.528,1.461.556,1.542-.179a3.1,3.1,0,0,0-1.167-2.4,5.051,5.051,0,0,0-4.5-.859m5.98,6.159c-3.537,1.957-7.924,2.88-11.8,1.395-.973-.314-1.747-1.074-2.761-1.274a.94.94,0,0,0-1.06.377,1.194,1.194,0,0,0,.431,1.455,11.121,11.121,0,0,0,5.046,1.9,18.005,18.005,0,0,0,8.42-1.169,5.726,5.726,0,0,0,2.529-1.483,1.011,1.011,0,0,0,.119-1.312C54.867,126.23,54.5,126.42,54.232,126.583Z" transform="translate(-19.39 -91.55)" fill="#136da9"/></g></g></g></g></svg>