<svg xmlns="http://www.w3.org/2000/svg" xmlns:xlink="http://www.w3.org/1999/xlink" width="99" height="99" viewBox="0 0 99 99"><defs><clipPath id="a"><rect width="47.618" height="47.616" fill="#62d5ff"/></clipPath></defs><g transform="translate(-1220 -3605)"><circle cx="49.5" cy="49.5" r="49.5" transform="translate(1220 3605)" fill="#ecf8ff"/><g transform="translate(1245.691 3630.692)"><g clip-path="url(#a)"><path d="M6.455,29.726c-1.68,0-3.323,0-4.966,0C.381,29.724,0,29.342,0,28.218q0-4.438,0-8.876c0-1.066.4-1.451,1.482-1.453q2.493,0,4.98,0c.276-.65.565-1.262.785-1.9a.709.709,0,0,0-.207-.564c-1.052-1.081-2.126-2.14-3.191-3.209-.792-.8-.8-1.338-.015-2.122q3.135-3.142,6.277-6.277c.759-.757,1.317-.755,2.082.005C13.28,4.9,14.364,5.978,15.431,7.071a.528.528,0,0,0,.75.133,5.228,5.228,0,0,1,.74-.33c.968-.389.969-.387.968-1.457,0-1.354,0-2.708,0-4.061C17.9.429,18.315,0,19.238,0Q23.821,0,28.4,0a1.164,1.164,0,0,1,1.32,1.321c.008,1.719,0,3.438,0,5.151.656.277,1.269.565,1.906.783a.721.721,0,0,0,.562-.221c1.08-1.052,2.14-2.127,3.208-3.191.792-.789,1.336-.794,2.123-.008q3.142,3.135,6.277,6.277c.75.752.746,1.319-.015,2.084-1.063,1.07-2.125,2.142-3.205,3.194-.26.253-.357.463-.157.793a5.132,5.132,0,0,1,.331.739c.392.963.391.963,1.462.962,1.354,0,2.708-.005,4.061,0A1.167,1.167,0,0,1,47.613,19.2q.01,4.612,0,9.225a1.17,1.17,0,0,1-1.341,1.3c-1.7.007-3.4,0-5.1,0-.282.662-.574,1.291-.807,1.941-.048.133.082.389.205.515,1.055,1.078,2.129,2.138,3.193,3.207.808.812.8,1.348-.015,2.166q-3.1,3.1-6.195,6.195c-.818.816-1.347.816-2.164,0-1.068-1.064-2.142-2.125-3.194-3.205a.509.509,0,0,0-.7-.125,8.988,8.988,0,0,1-1.335.555c-.369.114-.445.314-.441.671.02,1.528.012,3.056.007,4.584,0,.96-.42,1.379-1.38,1.38q-4.525.005-9.051,0c-1,0-1.4-.41-1.4-1.414,0-1.662,0-3.325,0-5.015-.658-.283-1.3-.584-1.964-.824-.129-.047-.383.1-.511.223-1.078,1.056-2.137,2.129-3.207,3.193-.787.783-1.332.78-2.123-.01q-3.12-3.116-6.236-6.235c-.795-.8-.8-1.334-.012-2.122,1.051-1.055,2.1-2.116,3.165-3.154a.6.6,0,0,0,.17-.839c-.275-.529-.471-1.1-.718-1.691M45.28,20.209c-1.649,0-3.249,0-4.849,0a1.206,1.206,0,0,1-1.322-.964c-.343-.921-.7-1.841-1.115-2.73-.517-1.1-.513-1.3.367-2.175,1.051-1.048,2.1-2.093,3.084-3.068l-5.1-5.1c-1.062,1.065-2.176,2.191-3.3,3.307a1.224,1.224,0,0,1-1.668.284Q29.873,9.1,28.335,8.506a1.207,1.207,0,0,1-.928-1.294c-.005-1.412,0-2.824,0-4.236V2.351H20.212v.591q0,2.089,0,4.177A1.257,1.257,0,0,1,19.2,8.536q-1.483.571-2.937,1.218a1.245,1.245,0,0,1-1.715-.288q-1.5-1.494-3-2.993c-.13-.13-.269-.25-.31-.287L6.153,11.24c1.087,1.085,2.212,2.2,3.327,3.322a1.241,1.241,0,0,1,.26,1.718c-.444.983-.851,1.984-1.238,2.991a1.208,1.208,0,0,1-1.287.937c-.812.007-1.624,0-2.437,0H2.37V27.4c1.632,0,3.216,0,4.8,0,.783,0,1.081.28,1.344,1.007.355.977.743,1.947,1.187,2.887.374.792.378,1.143-.23,1.76-.829.84-1.657,1.681-2.507,2.5a8.7,8.7,0,0,1-.916.695l5.172,5.2c.106-.1.247-.227.382-.361,1-1,1.993-2,3-2.992a1.211,1.211,0,0,1,1.666-.219c.974.458,1.978.859,2.989,1.228a1.208,1.208,0,0,1,.952,1.213c.013.793,0,1.586,0,2.379v2.547h7.194c0-1.624,0-3.207,0-4.79,0-.817.293-1.1,1.047-1.366a31.264,31.264,0,0,0,2.927-1.231,1.2,1.2,0,0,1,1.579.182c.435.412.851.844,1.274,1.27.733.736,1.464,1.473,2.091,2.1l5.108-5.108c-1.032-1.021-2.134-2.106-3.23-3.2-.683-.68-.68-.984-.271-1.843A30.222,30.222,0,0,0,39.1,28.436c.273-.764.557-1.028,1.382-1.03,1.18,0,2.359,0,3.539,0H45.28Z" transform="translate(0 0)" fill="#62d5ff"/><path d="M48.446,38.89a9.61,9.61,0,1,1-9.615,9.6,9.65,9.65,0,0,1,9.615-9.6m-.052,16.9a7.289,7.289,0,1,0-7.242-7.308,7.331,7.331,0,0,0,7.242,7.308" transform="translate(-24.637 -24.674)" fill="#62d5ff"/></g></g></g></svg>