<svg xmlns="http://www.w3.org/2000/svg" width="102" height="102" viewBox="0 0 102 102"><g transform="translate(-290 -338)"><circle cx="51" cy="51" r="51" transform="translate(290 338)" fill="#f6faff"/><g transform="translate(309.567 361)"><path d="M26.892,0h.1c2.951,5.065,5.943,10.174,8.916,15.27l-.04.08Q27.956,28.9,20.04,42.447c-.7,1.22-1.45,2.41-2.1,3.655H0c1.215-1.94,2.33-3.965,3.5-5.939Q15.021,20.458,26.529.748C26.6.484,26.98.3,26.892,0Z" fill="#48b884"/><g transform="translate(35.865 7.665)"><path d="M175.626,36.58l.1.067c7.483,12.772,14.905,25.588,22.424,38.333v.036h-8.967c-5.771-9.956-11.609-19.874-17.4-29.819a9.757,9.757,0,0,0-.637-.933l.04-.08C172.68,41.657,174.168,39.126,175.626,36.58Z" transform="translate(-171.15 -36.58)" fill="#3f7f70"/></g><g transform="translate(17.936 15.35)"><path d="M87.694,100.347Q95.6,86.8,103.519,73.25a9.757,9.757,0,0,1,.637.933c5.788,9.945,11.626,19.864,17.4,29.819H85.59C86.244,102.757,87,101.567,87.694,100.347Z" transform="translate(-85.59 -73.25)" fill="#36495d"/></g></g></g></svg>