<svg xmlns="http://www.w3.org/2000/svg" width="26" height="26" viewBox="0 0 26 26"><g transform="translate(-3073 -705.266)"><ellipse cx="12.552" cy="12.052" rx="12.552" ry="12.052" transform="translate(3073 706)" fill="#fff"/><g transform="translate(3073 705.266)"><path d="M26,13A13,13,0,1,1,13,0,13,13,0,0,1,26,13ZM12.425,17.3a.814.814,0,0,0,1.151,1.151l4.875-4.875a.813.813,0,0,0,0-1.151L13.576,7.55a.814.814,0,1,0-1.15,1.15l3.488,3.487H8.125a.813.813,0,0,0,0,1.625h7.788L12.424,17.3Z" fill="#f9065a" fill-rule="evenodd"/></g></g></svg>