<svg xmlns="http://www.w3.org/2000/svg" width="102" height="102" viewBox="0 0 102 102"><g transform="translate(-36 -165)"><circle cx="51" cy="51" r="51" transform="translate(36 165)" fill="#f6faff"/><g transform="translate(57.501 192.778)"><path d="M14,1.6A75.8,75.8,0,0,1,24.779.347a86.874,86.874,0,0,1,20.36,1.276A35.576,35.576,0,0,1,55.377,5.008c1.6.922,3.3,2.189,3.62,4.138v9.766c-.293,1.807-1.813,3.038-3.29,3.929a15.089,15.089,0,0,1-3.176,1.479c-7.7-1.831-15.355-3.825-23.046-5.67.035,3.031-.083,6.065.063,9.092a11.653,11.653,0,0,1-1.225.083,80,80,0,0,1-16.163-1.756,31.061,31.061,0,0,1-9-3.3C1.736,21.895.3,20.683,0,18.941V9.161C.3,7.2,2.022,5.93,3.624,5A35.8,35.8,0,0,1,14,1.6Z" transform="translate(0 0)" fill="#d33c44"/><path d="M0,140.463c.11,1.731,1.495,2.989,2.848,3.882a29.263,29.263,0,0,0,8.938,3.418,80.338,80.338,0,0,0,17.7,1.856c-.014-2.769.008-5.54-.014-8.309a2.032,2.032,0,0,1,.157-.911c1.811.547,3.666.934,5.5,1.41,5.8,1.42,11.591,2.911,17.4,4.3a15.888,15.888,0,0,0,3.611-1.756c1.353-.891,2.739-2.138,2.863-3.864v9.365a5.153,5.153,0,0,1-2.283,3.31,18.341,18.341,0,0,1-4.177,2.2q-11.516-2.9-23.046-5.733c-.016,3.062,0,6.122-.008,9.184h-1.51a78.735,78.735,0,0,1-16.551-1.921,29.344,29.344,0,0,1-8.429-3.231C1.624,152.776.238,151.57,0,149.863Z" transform="translate(0 -112.599)" fill="#d33c44"/></g></g></svg>