<svg xmlns="http://www.w3.org/2000/svg" width="102" height="102" viewBox="0 0 102 102"><g transform="translate(-290 -312)"><circle cx="51" cy="51" r="51" transform="translate(290 312)" fill="#f6faff"/><g transform="translate(313 335)"><path d="M27.857,0h.291A27.869,27.869,0,0,1,41.061,3.237,27.98,27.98,0,0,1,56,27.632v.94a28.083,28.083,0,0,1-18.057,25.6A27.9,27.9,0,0,1,28.146,56h-.293A28.007,28.007,0,0,1,0,28.249v-.4a28.285,28.285,0,0,1,.517-5.21A27.884,27.884,0,0,1,5.76,11.01a28.2,28.2,0,0,1,9.793-8.086A27.9,27.9,0,0,1,27.857,0M26.586,1.321A26.566,26.566,0,0,0,15.041,4.646a26.9,26.9,0,0,0-9.381,8.72,26.647,26.647,0,0,0,2.32,32.3A26.711,26.711,0,1,0,26.586,1.321Z" fill="#21759b"/><path d="M158.1,73.846A23.983,23.983,0,0,1,181.336,79.1a3.806,3.806,0,0,0-2.255.509,4.278,4.278,0,0,0-1.9,2.468,4.84,4.84,0,0,0-.027,2.551,9.574,9.574,0,0,0,1.084,2.51c.543.965,1.183,1.872,1.672,2.867a11.637,11.637,0,0,1,1.382,6.434,17.525,17.525,0,0,1-.6,2.989c-.339,1.259-.745,2.5-1.129,3.746q-1.235,4.1-2.459,8.209-4.326-12.917-8.678-25.827,1.294-.075,2.584-.211a1.207,1.207,0,0,0,.74-.265,1.041,1.041,0,0,0,.019-1.481.953.953,0,0,0-.691-.253,75.1,75.1,0,0,1-8.151.268c-1.552-.056-3.1-.16-4.651-.267a.965.965,0,0,0-.65.19,1.073,1.073,0,0,0-.188,1.438.88.88,0,0,0,.514.323c.9.122,1.806.189,2.71.26q1.863,5.129,3.738,10.253-2.631,7.878-5.257,15.759Q154.774,98.567,150.4,85.56c.916-.05,1.831-.129,2.743-.229a.98.98,0,0,0,.808-.554,1.028,1.028,0,0,0-.412-1.318,1.809,1.809,0,0,0-1-.073,73.043,73.043,0,0,1-7.492.243,24.163,24.163,0,0,1,7.052-6.992A23.843,23.843,0,0,1,158.1,73.846Z" transform="translate(-137.118 -68.821)" fill="#21759b"/><path d="M741.852,301.39a24,24,0,0,1-5.609,29.882,24.157,24.157,0,0,1-3.393,2.4q3.681-10.644,7.365-21.286a25.358,25.358,0,0,0,1.613-5.873A19.324,19.324,0,0,0,741.852,301.39Z" transform="translate(-692.772 -284.908)" fill="#21759b"/><path d="M74.194,351.183a24.024,24.024,0,0,1,.717-17.753q5.733,15.688,11.455,31.381a24.18,24.18,0,0,1-9.484-8.269A23.753,23.753,0,0,1,74.194,351.183Z" transform="translate(-68.849 -315.196)" fill="#21759b"/><path d="M387.96,571.371q3.6-10.471,7.206-20.941l7.191,19.7a4.847,4.847,0,0,0,.361.858,23.973,23.973,0,0,1-9.394,1.315A24.337,24.337,0,0,1,387.96,571.371Z" transform="translate(-366.743 -520.328)" fill="#21759b"/></g></g></svg>