<?xml version="1.0" encoding="UTF-8"?>
<svg width="290px" height="210px" viewBox="0 0 290 210" version="1.1" xmlns="http://www.w3.org/2000/svg" xmlns:xlink="http://www.w3.org/1999/xlink">
    <!-- Generator: Sketch 50.2 (55047) - http://www.bohemiancoding.com/sketch -->
    <title>white-sticker</title>
    <desc>Created with Sketch.</desc>
    <defs></defs>
    <g id="white-sticker" stroke="none" stroke-width="1" fill="none" fill-rule="evenodd">
        <g id="White_G" transform="translate(114.000000, 24.000000)" fill="#4385F4">
            <path d="M61.5,0 L16.5840035,0 C0.346487215,3.876 0,17.376 0,17.376 L0,63 L17.2769779,63 L17.2769779,21.462 C17.2769779,17.931 20.7300043,17.307 20.7300043,17.307 L61.5,17.307 L61.5,0 Z M27.3631124,24.0110679 C27.3631124,24.0110679 24,23.6788817 24,26.6542398 L24,39.8700988 L46.1902017,39.8700988 L46.1902017,43.8362884 C46.1902017,43.8362884 46.2564841,45.8179513 44.1729107,45.8179513 L24,45.8179513 L24,63 L48.2074928,63 C48.2074928,63 62.8674352,60.754879 63,45.8179513 L63,24.0110679 L27.3631124,24.0110679 Z" id="Fill-1"></path>
        </g>
        <g id="white-logo-copy" transform="translate(66.000000, 103.000000)" fill="#4385F4">
            <g id="goodfirms-logo" transform="translate(0.000000, 2.434783)">
                <g id="Group" fill-rule="nonzero">
                    <path d="M20.5748865,22.2240207 C20.0181543,22.6037021 19.6066566,22.8821352 19.3161875,23.0593199 C18.2753404,23.7174344 17.2829046,24.2236762 16.3630862,24.6286699 C15.03177,25.185536 13.8456883,25.463969 12.7806354,25.463969 C9.12556732,25.463969 6.09984871,24.3249247 3.65506808,22.0215239 C1.21028744,19.7181231 2.84217094e-14,16.8325441 2.84217094e-14,13.3394748 C2.84217094e-14,9.97296599 1.0892587,7.06207491 3.29198184,4.58148945 C5.49470499,2.100904 8.15733736,0.885923375 11.3040847,0.885923375 C12.6111952,0.885923375 14.0151286,1.11373224 15.4674735,1.59466208 C17.3555219,2.20215239 18.8804842,3.11338786 20.0907716,4.30305639 L17.9848714,6.68239346 C17.0892587,5.79647008 15.9273828,5.13835557 14.5718609,4.73336204 C13.5552194,4.42961687 12.4417549,4.2777443 11.2072617,4.2777443 C9.00453857,4.2777443 7.14069592,5.18897977 5.66414524,6.98613861 C4.18759456,8.80860956 3.43721633,10.9601377 3.43721633,13.4913474 C3.43721633,15.9972449 4.28441754,18.0475248 5.97881997,19.692811 C7.67322239,21.3380973 9.82753404,22.1733965 12.4417549,22.1733965 C13.5310136,22.1733965 14.6444781,21.8190271 15.7821483,21.1356005 C16.7261725,20.4015497 17.2102874,20.0471804 17.2344932,20.0218683 L17.2344932,14.8328886 L10.1664145,14.8328886 L11.183056,11.5929402 L20.5748865,11.5929402 L20.5748865,22.2240207 Z" id="Shape"></path>
                    <path d="M41.924357,15.8959965 C41.924357,18.401894 41.0529501,20.5787344 39.3101362,22.4012053 C37.5673223,24.2236762 35.4130106,25.1602239 32.8472013,25.1602239 C30.4750378,25.1602239 28.3933434,24.2489883 26.602118,22.4518295 C24.8108925,20.6546707 23.9394856,18.4778304 23.9394856,15.9213087 C23.9394856,13.390099 24.7866869,11.2132587 26.4810893,9.34016358 C28.1754916,7.46706844 30.2571861,6.55583297 32.7019667,6.55583297 C35.4130106,6.55583297 37.6157337,7.44175635 39.3343418,9.2389152 C41.0529501,10.9854499 41.924357,13.2129143 41.924357,15.8959965 Z M38.6081695,15.9466208 C38.6081695,14.2507103 38.0514372,12.8079208 36.9379727,11.6435644 C35.8245084,10.4538958 34.4447807,9.87171761 32.7987897,9.87171761 C31.2496218,9.87171761 29.9425113,10.4792079 28.8532526,11.6941886 C27.763994,12.9091692 27.2314674,14.3013344 27.2314674,15.8706844 C27.2314674,17.5159708 27.7881997,18.908136 28.8774584,20.0724925 C29.9667171,21.2368488 31.322239,21.8443392 32.96823,21.8443392 C34.4931921,21.8443392 35.8003026,21.262161 36.913767,20.0978045 C38.0514372,18.9334482 38.6081695,17.5412828 38.6081695,15.9466208 Z" id="Shape"></path>
                    <path d="M62.9833586,15.8959965 C62.9833586,18.401894 62.1119516,20.5787344 60.3691377,22.4012053 C58.6263238,24.2236762 56.4720121,25.1602239 53.9062027,25.1602239 C51.5340394,25.1602239 49.4523449,24.2489883 47.6611196,22.4518295 C45.8698941,20.6546707 44.9984871,18.4778304 44.9984871,15.9213087 C44.9984871,13.390099 45.8456883,11.2132587 47.5400907,9.34016358 C49.2344932,7.46706844 51.3161875,6.55583297 53.7609682,6.55583297 C56.4720121,6.55583297 58.6747353,7.44175635 60.3933434,9.2389152 C62.1119516,10.9854499 62.9833586,13.2129143 62.9833586,15.8959965 Z M59.6671709,15.9466208 C59.6671709,14.2507103 59.1104387,12.8079208 57.9969743,11.6435644 C56.8835098,10.4538958 55.5037821,9.87171761 53.8577912,9.87171761 C52.3086233,9.87171761 51.0015129,10.4792079 49.9122542,11.6941886 C48.8229955,12.9091692 48.290469,14.3013344 48.290469,15.8706844 C48.290469,17.5159708 48.8472013,18.908136 49.93646,20.0724925 C51.0257185,21.2368488 52.3812405,21.8443392 54.0272314,21.8443392 C55.5521937,21.8443392 56.8593041,21.262161 57.9727686,20.0978045 C59.1104387,18.9334482 59.6671709,17.5412828 59.6671709,15.9466208 Z" id="Shape"></path>
                    <path d="M82.4689864,24.6539819 L79.419062,25.1349117 L79.419062,22.1227722 C79.2012103,22.3758932 78.9833586,22.6290143 78.7655068,22.8821352 C78.1845689,23.4390013 77.5310136,23.8946191 76.829047,24.2489883 C75.8124054,24.7299182 74.6989409,24.9830392 73.5128593,24.9830392 C71.1406959,24.9830392 69.107413,24.0971158 67.4614221,22.299957 C65.8154311,20.5027982 64.9924358,18.3765821 64.9924358,15.8959965 C64.9924358,13.3394748 65.8154311,11.1373224 67.4372163,9.31485148 C69.0590015,7.49238054 71.043873,6.58114508 73.4160363,6.58114508 C74.7715583,6.58114508 75.9576399,6.80895394 76.9500757,7.26457168 C77.6520423,7.59362892 78.2571861,8.02393457 78.7655068,8.5554886 C78.9349471,8.78329747 79.1043873,9.03641843 79.2738275,9.2642273 L79.2738275,1.36685321 L82.5173978,0.885923375 L82.4689864,24.6539819 Z M79.612708,16.1238054 C79.612708,14.3519587 79.03177,12.858545 77.8456883,11.6435644 C76.6596067,10.4032716 75.3282905,9.79578131 73.8033283,9.79578131 C72.1089259,9.79578131 70.753404,10.3779595 69.7125568,11.542316 C68.7443268,12.6560482 68.236006,14.0229014 68.236006,15.6175635 C68.236006,17.4147223 68.7443268,18.908136 69.7609682,20.0724925 C70.7776097,21.2368488 72.0605144,21.8190271 73.633888,21.8190271 C75.183056,21.8190271 76.5385779,21.2874731 77.7488654,20.199053 C78.9833586,19.0853208 79.612708,17.7184675 79.612708,16.1238054 Z" id="Shape"></path>
                    <polygon id="Shape" points="99.5824508 4.65742574 90.505295 4.65742574 90.505295 10.9601377 97.5491679 10.9601377 97.5491679 14.2000861 90.505295 14.2000861 90.505295 24.6286699 86.9712557 25.1602239 86.9712557 1.3921653 98.8804842 1.3921653"></polygon>
                    <path d="M106.868381,2.8096427 L104.689864,5.6192854 L102.608169,2.8096427 L104.810893,0.0253120965 L106.868381,2.8096427 Z M106.214826,24.6539819 L102.971256,25.1095996 L102.971256,7.51769264 L106.214826,7.01145071 L106.214826,24.6539819 Z" id="Shape"></path>
                    <path d="M120.859304,6.83426604 L119.334342,10.4285837 C119.164902,10.4032716 118.94705,10.3779595 118.729198,10.3779595 C118.414523,10.3779595 118.099849,10.4032716 117.785174,10.4538958 C117.470499,10.50452 117.131619,10.6310805 116.768533,10.8082652 C116.090772,11.1120103 115.509834,11.7701248 115.001513,12.7572966 C114.444781,13.8710288 114.154312,15.0860095 114.154312,16.3769264 L114.154312,24.6286699 L110.910741,25.1602239 L110.910741,7.51769264 L113.912254,6.96082652 L113.912254,10.6310805 C114.299546,9.99827809 114.711044,9.36547568 115.098336,8.70736117 C115.655068,8.04924666 116.308623,7.56831683 117.034796,7.28988377 C117.422088,7.13801119 118.124054,7.01145071 119.189107,6.91020232 C120.205749,6.83426604 120.786687,6.78364184 120.859304,6.83426604 Z" id="Shape"></path>
                    <path d="M145.016641,24.6539819 L141.773071,25.1349117 L141.773071,13.0610418 C141.773071,11.9473095 141.531014,11.1373224 141.046898,10.6310805 C140.562784,10.1248386 139.836611,9.87171761 138.892587,9.87171761 C137.754917,9.87171761 136.88351,10.3526474 136.302572,11.3145071 C135.91528,11.9726216 135.697428,12.6813603 135.697428,13.390099 L135.697428,24.6286699 L132.453858,25.2361601 L132.453858,13.136978 C132.453858,12.07387 132.2118,11.2638829 131.751891,10.7070168 C131.267776,10.1501507 130.638427,9.87171761 129.815431,9.87171761 C129.670197,9.87171761 129.573374,9.87171761 129.500756,9.87171761 C128.363086,9.87171761 127.540091,10.3526474 127.03177,11.3398192 C126.644478,12.07387 126.450832,13.0104176 126.450832,14.1494619 L126.450832,24.6286699 L123.086233,25.2361601 L123.086233,7.51769264 L126.111952,6.98613861 L126.111952,9.2389152 C126.450832,8.70736117 126.789713,8.27705553 127.104387,7.97331038 C127.975794,7.13801119 128.992436,6.73301765 130.130106,6.73301765 C131.413011,6.73301765 132.357035,6.93551443 133.01059,7.36582005 C133.567322,7.7201894 134.099849,8.42892812 134.632375,9.44141196 C135.74584,7.64425312 137.319213,6.73301765 139.400907,6.73301765 C141.385779,6.73301765 142.86233,7.36582005 143.83056,8.65673697 C144.62935,9.71984503 145.016641,11.289195 145.016641,13.3394748 L145.016641,24.6539819 Z" id="Shape"></path>
                    <path d="M159.83056,19.3131296 C159.83056,20.9331038 159.273828,22.2746448 158.160363,23.3124408 C157.046898,24.3755488 155.642965,24.8817908 153.948563,24.8817908 C152.665658,24.8817908 151.527987,24.5780456 150.48714,23.9705553 C149.446293,23.3630651 148.671709,22.6796384 148.163389,21.8696513 L150.43873,19.7940595 C150.60817,20.0471804 150.753404,20.2496771 150.898638,20.4015497 C151.745839,21.2874731 152.762481,21.7430908 153.948563,21.7430908 C154.771558,21.7430908 155.425113,21.515282 155.885023,21.0849764 C156.369138,20.6546707 156.58699,20.0471804 156.58699,19.2625053 C156.58699,18.3765821 156.030257,17.7690917 154.916793,17.4400344 C152.71407,16.7566078 151.527987,16.3769264 151.358547,16.3009901 C150.341906,15.7694361 149.615734,15.21257 149.155825,14.5797675 C148.647503,13.8457167 148.381241,12.8838571 148.381241,11.6435644 C148.381241,10.1248386 148.937973,8.85923375 150.027232,7.8467499 C151.11649,6.83426604 152.423601,6.35333621 153.924358,6.35333621 C155.062027,6.35333621 156.12708,6.60645717 157.09531,7.13801119 C158.063539,7.66956522 158.765507,8.22643134 159.177005,8.88454584 L157.240544,11.036074 C156.877458,10.6817047 156.562784,10.4032716 156.29652,10.226087 C155.521937,9.66922083 154.771558,9.39078778 154.069592,9.39078778 C153.39183,9.39078778 152.835098,9.54266035 152.399395,9.84640551 C151.891075,10.226087 151.624811,10.7829531 151.624811,11.5170039 C151.624811,12.2257426 151.866869,12.7572966 152.375189,13.0863539 C152.810893,13.3647869 153.730712,13.6685321 155.183055,13.9975893 C156.6354,14.3519587 157.748865,14.959449 158.547655,15.8200603 C159.443268,16.7312957 159.83056,17.8703401 159.83056,19.3131296 Z" id="Shape"></path>
                </g>
            </g>
        </g>
        <path d="M90.772,160.888 C90.697333,160.813333 90.66,160.722667 90.66,160.616 L90.66,151.8 L87.7,151.8 C87.5933328,151.8 87.502667,151.762667 87.428,151.688 C87.353333,151.613333 87.316,151.517334 87.316,151.4 L87.316,150.2 C87.316,150.082666 87.3506663,149.986667 87.42,149.912 C87.4893337,149.837333 87.5826661,149.8 87.7,149.8 L95.876,149.8 C95.9933339,149.8 96.089333,149.837333 96.164,149.912 C96.238667,149.986667 96.276,150.082666 96.276,150.2 L96.276,151.4 C96.276,151.517334 96.238667,151.613333 96.164,151.688 C96.089333,151.762667 95.9933339,151.8 95.876,151.8 L92.932,151.8 L92.932,160.616 C92.932,160.722667 92.8973337,160.813333 92.828,160.888 C92.7586663,160.962667 92.6653339,161 92.548,161 L91.044,161 C90.9373328,161 90.846667,160.962667 90.772,160.888 Z M98.484,160.2 C97.8013299,159.559997 97.4333336,158.674672 97.38,157.544 L97.364,156.84 L97.38,156.136 C97.4333336,155.015994 97.8066632,154.133337 98.5,153.488 C99.1933368,152.842663 100.15866,152.52 101.396,152.52 C102.622673,152.52 103.582663,152.842663 104.276,153.488 C104.969337,154.133337 105.342666,155.015994 105.396,156.136 C105.406667,156.264001 105.412,156.498665 105.412,156.84 C105.412,157.181335 105.406667,157.415999 105.396,157.544 C105.342666,158.674672 104.97467,159.559997 104.292,160.2 C103.60933,160.840003 102.644006,161.16 101.396,161.16 C100.137327,161.16 99.1666701,160.840003 98.484,160.2 Z M102.7,159.016 C103.004002,158.663998 103.166667,158.14667 103.188,157.464 C103.198667,157.357333 103.204,157.149335 103.204,156.84 C103.204,156.530665 103.198667,156.322667 103.188,156.216 C103.166667,155.53333 103.001335,155.013335 102.692,154.656 C102.382665,154.298665 101.950669,154.12 101.396,154.12 C100.830664,154.12 100.393335,154.298665 100.084,154.656 C99.7746651,155.013335 99.6093334,155.53333 99.588,156.216 L99.572,156.84 L99.588,157.464 C99.6093334,158.14667 99.7746651,158.663998 100.084,159.016 C100.393335,159.368002 100.830664,159.544 101.396,159.544 C101.961336,159.544 102.395998,159.368002 102.7,159.016 Z M107.316,163.936 C107.241333,163.866666 107.204,163.773334 107.204,163.656 L107.204,153.064 C107.204,152.946666 107.241333,152.853334 107.316,152.784 C107.390667,152.714666 107.481333,152.68 107.588,152.68 L108.868,152.68 C108.985334,152.68 109.081333,152.717333 109.156,152.792 C109.230667,152.866667 109.268,152.957333 109.268,153.064 L109.268,153.704 C109.833336,152.914663 110.681328,152.52 111.812,152.52 C112.889339,152.52 113.715997,152.858663 114.292,153.536 C114.868003,154.213337 115.177333,155.122661 115.22,156.264 C115.230667,156.392001 115.236,156.583999 115.236,156.84 C115.236,157.096001 115.230667,157.287999 115.22,157.416 C115.188,158.536006 114.881336,159.439997 114.3,160.128 C113.718664,160.816003 112.889339,161.16 111.812,161.16 C110.745328,161.16 109.929336,160.781337 109.364,160.024 L109.364,163.656 C109.364,163.773334 109.329334,163.866666 109.26,163.936 C109.190666,164.005334 109.097334,164.04 108.98,164.04 L107.588,164.04 C107.481333,164.04 107.390667,164.005334 107.316,163.936 Z M113.028,157.32 C113.038667,157.213333 113.044,157.053334 113.044,156.84 C113.044,156.626666 113.038667,156.466667 113.028,156.36 C112.953333,154.951993 112.345339,154.248 111.204,154.248 C110.595997,154.248 110.142668,154.445331 109.844,154.84 C109.545332,155.234669 109.385333,155.714664 109.364,156.28 C109.353333,156.408001 109.348,156.610665 109.348,156.888 C109.348,157.165335 109.353333,157.373333 109.364,157.512 C109.385333,158.045336 109.550665,158.498665 109.86,158.872 C110.169335,159.245335 110.61733,159.432 111.204,159.432 C112.345339,159.432 112.953333,158.728007 113.028,157.32 Z M120.964,160.888 C120.889333,160.813333 120.852,160.722667 120.852,160.616 L120.852,150.2 C120.852,150.082666 120.886666,149.986667 120.956,149.912 C121.025334,149.837333 121.118666,149.8 121.236,149.8 L122.532,149.8 C122.734668,149.8 122.894666,149.901332 123.012,150.104 L126.1,155.832 L129.188,150.104 C129.305334,149.901332 129.465332,149.8 129.668,149.8 L130.948,149.8 C131.065334,149.8 131.161333,149.837333 131.236,149.912 C131.310667,149.986667 131.348,150.082666 131.348,150.2 L131.348,160.616 C131.348,160.733334 131.310667,160.826666 131.236,160.896 C131.161333,160.965334 131.065334,161 130.948,161 L129.572,161 C129.465333,161 129.374667,160.962667 129.3,160.888 C129.225333,160.813333 129.188,160.722667 129.188,160.616 L129.188,153.736 L126.964,157.96 C126.846666,158.194668 126.670668,158.312 126.436,158.312 L125.764,158.312 C125.539999,158.312 125.358667,158.194668 125.22,157.96 L122.996,153.736 L122.996,160.616 C122.996,160.722667 122.961334,160.813333 122.892,160.888 C122.822666,160.962667 122.729334,161 122.612,161 L121.236,161 C121.129333,161 121.038667,160.962667 120.964,160.888 Z M134.436,160.2 C133.75333,159.559997 133.385334,158.674672 133.332,157.544 L133.316,156.84 L133.332,156.136 C133.385334,155.015994 133.758663,154.133337 134.452,153.488 C135.145337,152.842663 136.11066,152.52 137.348,152.52 C138.574673,152.52 139.534663,152.842663 140.228,153.488 C140.921337,154.133337 141.294666,155.015994 141.348,156.136 C141.358667,156.264001 141.364,156.498665 141.364,156.84 C141.364,157.181335 141.358667,157.415999 141.348,157.544 C141.294666,158.674672 140.92667,159.559997 140.244,160.2 C139.56133,160.840003 138.596006,161.16 137.348,161.16 C136.089327,161.16 135.11867,160.840003 134.436,160.2 Z M138.652,159.016 C138.956002,158.663998 139.118667,158.14667 139.14,157.464 C139.150667,157.357333 139.156,157.149335 139.156,156.84 C139.156,156.530665 139.150667,156.322667 139.14,156.216 C139.118667,155.53333 138.953335,155.013335 138.644,154.656 C138.334665,154.298665 137.902669,154.12 137.348,154.12 C136.782664,154.12 136.345335,154.298665 136.036,154.656 C135.726665,155.013335 135.561333,155.53333 135.54,156.216 L135.524,156.84 L135.54,157.464 C135.561333,158.14667 135.726665,158.663998 136.036,159.016 C136.345335,159.368002 136.782664,159.544 137.348,159.544 C137.913336,159.544 138.347998,159.368002 138.652,159.016 Z M145.22,160.024 L145.22,160.616 C145.22,160.722667 145.182667,160.813333 145.108,160.888 C145.033333,160.962667 144.937334,161 144.82,161 L143.54,161 C143.433333,161 143.342667,160.962667 143.268,160.888 C143.193333,160.813333 143.156,160.722667 143.156,160.616 L143.156,150.024 C143.156,149.906666 143.193333,149.813334 143.268,149.744 C143.342667,149.674666 143.433333,149.64 143.54,149.64 L144.932,149.64 C145.049334,149.64 145.142666,149.674666 145.212,149.744 C145.281334,149.813334 145.316,149.906666 145.316,150.024 L145.316,153.576 C145.913336,152.871996 146.729328,152.52 147.764,152.52 C148.841339,152.52 149.670664,152.86933 150.252,153.568 C150.833336,154.26667 151.14,155.181328 151.172,156.312 C151.182667,156.440001 151.188,156.615999 151.188,156.84 C151.188,157.053334 151.182667,157.229333 151.172,157.368 C151.129333,158.520006 150.820003,159.439997 150.244,160.128 C149.667997,160.816003 148.841339,161.16 147.764,161.16 C146.654661,161.16 145.80667,160.781337 145.22,160.024 Z M148.98,157.32 C148.990667,157.213333 148.996,157.053334 148.996,156.84 C148.996,156.626666 148.990667,156.466667 148.98,156.36 C148.905333,154.951993 148.297339,154.248 147.156,154.248 C146.56933,154.248 146.121335,154.434665 145.812,154.808 C145.502665,155.181335 145.337333,155.634664 145.316,156.168 C145.305333,156.296001 145.3,156.503999 145.3,156.792 C145.3,157.069335 145.305333,157.271999 145.316,157.4 C145.337333,157.965336 145.497332,158.445331 145.796,158.84 C146.094668,159.234669 146.547997,159.432 147.156,159.432 C148.297339,159.432 148.905333,158.728007 148.98,157.32 Z M153.012,151.208 C152.937333,151.133333 152.9,151.042667 152.9,150.936 L152.9,149.768 C152.9,149.650666 152.937333,149.554667 153.012,149.48 C153.086667,149.405333 153.177333,149.368 153.284,149.368 L154.756,149.368 C154.873334,149.368 154.969333,149.405333 155.044,149.48 C155.118667,149.554667 155.156,149.650666 155.156,149.768 L155.156,150.936 C155.156,151.042667 155.116,151.133333 155.036,151.208 C154.956,151.282667 154.862667,151.32 154.756,151.32 L153.284,151.32 C153.177333,151.32 153.086667,151.282667 153.012,151.208 Z M153.076,160.888 C153.001333,160.813333 152.964,160.722667 152.964,160.616 L152.964,153.064 C152.964,152.946666 153.001333,152.853334 153.076,152.784 C153.150667,152.714666 153.241333,152.68 153.348,152.68 L154.708,152.68 C154.814667,152.68 154.905333,152.717333 154.98,152.792 C155.054667,152.866667 155.092,152.957333 155.092,153.064 L155.092,160.616 C155.092,160.722667 155.054667,160.813333 154.98,160.888 C154.905333,160.962667 154.814667,161 154.708,161 L153.348,161 C153.241333,161 153.150667,160.962667 153.076,160.888 Z M157.332,160.888 C157.257333,160.813333 157.22,160.722667 157.22,160.616 L157.22,150.024 C157.22,149.906666 157.257333,149.813334 157.332,149.744 C157.406667,149.674666 157.497333,149.64 157.604,149.64 L158.948,149.64 C159.065334,149.64 159.158666,149.674666 159.228,149.744 C159.297334,149.813334 159.332,149.906666 159.332,150.024 L159.332,160.616 C159.332,160.722667 159.297334,160.813333 159.228,160.888 C159.158666,160.962667 159.065334,161 158.948,161 L157.604,161 C157.497333,161 157.406667,160.962667 157.332,160.888 Z M162.22,160.136 C161.52133,159.45333 161.150667,158.482673 161.108,157.224 L161.092,156.824 C161.092,155.49066 161.44133,154.440004 162.14,153.672 C162.83867,152.903996 163.80666,152.52 165.044,152.52 C166.31334,152.52 167.291997,152.903996 167.98,153.672 C168.668003,154.440004 169.012,155.463994 169.012,156.744 L169.012,157.08 C169.012,157.186667 168.974667,157.277333 168.9,157.352 C168.825333,157.426667 168.729334,157.464 168.612,157.464 L163.3,157.464 L163.3,157.592 C163.321333,158.189336 163.483998,158.682665 163.788,159.072 C164.092002,159.461335 164.510664,159.656 165.044,159.656 C165.652003,159.656 166.147998,159.410669 166.532,158.92 C166.628,158.802666 166.702666,158.730667 166.756,158.704 C166.809334,158.677333 166.899999,158.664 167.028,158.664 L168.436,158.664 C168.532,158.664 168.614666,158.690666 168.684,158.744 C168.753334,158.797334 168.788,158.872 168.788,158.968 C168.788,159.224001 168.636002,159.525332 168.332,159.872 C168.027998,160.218668 167.593336,160.519999 167.028,160.776 C166.462664,161.032001 165.80667,161.16 165.06,161.16 C163.865327,161.16 162.91867,160.81867 162.22,160.136 Z M166.804,156.104 L166.804,156.072 C166.804,155.442664 166.646668,154.938669 166.332,154.56 C166.017332,154.181331 165.588003,153.992 165.044,153.992 C164.499997,153.992 164.073335,154.181331 163.764,154.56 C163.454665,154.938669 163.3,155.442664 163.3,156.072 L163.3,156.104 L166.804,156.104 Z M173.62,160.904 C173.556,160.84 173.524,160.76 173.524,160.664 L173.556,160.52 L177.396,150.2 C177.502667,149.933332 177.694665,149.8 177.972,149.8 L179.732,149.8 C180.009335,149.8 180.201333,149.933332 180.308,150.2 L184.148,160.52 L184.18,160.664 C184.18,160.76 184.145334,160.84 184.076,160.904 C184.006666,160.968 183.929334,161 183.844,161 L182.42,161 C182.195999,161 182.041334,160.898668 181.956,160.696 L181.22,158.76 L176.484,158.76 L175.748,160.696 C175.662666,160.898668 175.508001,161 175.284,161 L173.86,161 C173.764,161 173.684,160.968 173.62,160.904 Z M177.044,156.904 L180.66,156.904 L178.852,151.976 L177.044,156.904 Z M185.588,163.936 C185.513333,163.866666 185.476,163.773334 185.476,163.656 L185.476,153.064 C185.476,152.946666 185.513333,152.853334 185.588,152.784 C185.662667,152.714666 185.753333,152.68 185.86,152.68 L187.14,152.68 C187.257334,152.68 187.353333,152.717333 187.428,152.792 C187.502667,152.866667 187.54,152.957333 187.54,153.064 L187.54,153.704 C188.105336,152.914663 188.953328,152.52 190.084,152.52 C191.161339,152.52 191.987997,152.858663 192.564,153.536 C193.140003,154.213337 193.449333,155.122661 193.492,156.264 C193.502667,156.392001 193.508,156.583999 193.508,156.84 C193.508,157.096001 193.502667,157.287999 193.492,157.416 C193.46,158.536006 193.153336,159.439997 192.572,160.128 C191.990664,160.816003 191.161339,161.16 190.084,161.16 C189.017328,161.16 188.201336,160.781337 187.636,160.024 L187.636,163.656 C187.636,163.773334 187.601334,163.866666 187.532,163.936 C187.462666,164.005334 187.369334,164.04 187.252,164.04 L185.86,164.04 C185.753333,164.04 185.662667,164.005334 185.588,163.936 Z M191.3,157.32 C191.310667,157.213333 191.316,157.053334 191.316,156.84 C191.316,156.626666 191.310667,156.466667 191.3,156.36 C191.225333,154.951993 190.617339,154.248 189.476,154.248 C188.867997,154.248 188.414668,154.445331 188.116,154.84 C187.817332,155.234669 187.657333,155.714664 187.636,156.28 C187.625333,156.408001 187.62,156.610665 187.62,156.888 C187.62,157.165335 187.625333,157.373333 187.636,157.512 C187.657333,158.045336 187.822665,158.498665 188.132,158.872 C188.441335,159.245335 188.88933,159.432 189.476,159.432 C190.617339,159.432 191.225333,158.728007 191.3,157.32 Z M195.412,163.936 C195.337333,163.866666 195.3,163.773334 195.3,163.656 L195.3,153.064 C195.3,152.946666 195.337333,152.853334 195.412,152.784 C195.486667,152.714666 195.577333,152.68 195.684,152.68 L196.964,152.68 C197.081334,152.68 197.177333,152.717333 197.252,152.792 C197.326667,152.866667 197.364,152.957333 197.364,153.064 L197.364,153.704 C197.929336,152.914663 198.777328,152.52 199.908,152.52 C200.985339,152.52 201.811997,152.858663 202.388,153.536 C202.964003,154.213337 203.273333,155.122661 203.316,156.264 C203.326667,156.392001 203.332,156.583999 203.332,156.84 C203.332,157.096001 203.326667,157.287999 203.316,157.416 C203.284,158.536006 202.977336,159.439997 202.396,160.128 C201.814664,160.816003 200.985339,161.16 199.908,161.16 C198.841328,161.16 198.025336,160.781337 197.46,160.024 L197.46,163.656 C197.46,163.773334 197.425334,163.866666 197.356,163.936 C197.286666,164.005334 197.193334,164.04 197.076,164.04 L195.684,164.04 C195.577333,164.04 195.486667,164.005334 195.412,163.936 Z M201.124,157.32 C201.134667,157.213333 201.14,157.053334 201.14,156.84 C201.14,156.626666 201.134667,156.466667 201.124,156.36 C201.049333,154.951993 200.441339,154.248 199.3,154.248 C198.691997,154.248 198.238668,154.445331 197.94,154.84 C197.641332,155.234669 197.481333,155.714664 197.46,156.28 C197.449333,156.408001 197.444,156.610665 197.444,156.888 C197.444,157.165335 197.449333,157.373333 197.46,157.512 C197.481333,158.045336 197.646665,158.498665 197.956,158.872 C198.265335,159.245335 198.71333,159.432 199.3,159.432 C200.441339,159.432 201.049333,158.728007 201.124,157.32 Z M56.948,179.888 C56.873333,179.813333 56.836,179.722667 56.836,179.616 L56.836,169.2 C56.836,169.082666 56.8706663,168.986667 56.94,168.912 C57.0093337,168.837333 57.1026661,168.8 57.22,168.8 L61.124,168.8 C64.2706824,168.8 65.8759997,170.250652 65.94,173.152 C65.9613334,173.77067 65.972,174.186666 65.972,174.4 C65.972,174.602668 65.9613334,175.01333 65.94,175.632 C65.8973331,177.125341 65.4946705,178.226663 64.732,178.936 C63.9693295,179.645337 62.7933413,180 61.204,180 L57.22,180 C57.1133328,180 57.022667,179.962667 56.948,179.888 Z M61.124,178.144 C62.0093378,178.144 62.6493314,177.946669 63.044,177.552 C63.4386686,177.157331 63.6466666,176.501338 63.668,175.584 C63.6893334,174.943997 63.7,174.544001 63.7,174.384 C63.7,174.213332 63.6893334,173.81867 63.668,173.2 C63.6466666,172.325329 63.4280021,171.682669 63.012,171.272 C62.5959979,170.861331 61.9400045,170.656 61.044,170.656 L59.092,170.656 L59.092,178.144 L61.124,178.144 Z M68.652,179.136 C67.9533298,178.45333 67.5826669,177.482673 67.54,176.224 L67.524,175.824 C67.524,174.49066 67.8733298,173.440004 68.572,172.672 C69.2706702,171.903996 70.2386605,171.52 71.476,171.52 C72.7453397,171.52 73.7239966,171.903996 74.412,172.672 C75.1000034,173.440004 75.444,174.463994 75.444,175.744 L75.444,176.08 C75.444,176.186667 75.406667,176.277333 75.332,176.352 C75.257333,176.426667 75.1613339,176.464 75.044,176.464 L69.732,176.464 L69.732,176.592 C69.7533334,177.189336 69.9159985,177.682665 70.22,178.072 C70.5240015,178.461335 70.942664,178.656 71.476,178.656 C72.084003,178.656 72.5799981,178.410669 72.964,177.92 C73.0600005,177.802666 73.1346664,177.730667 73.188,177.704 C73.2413336,177.677333 73.3319994,177.664 73.46,177.664 L74.868,177.664 C74.9640005,177.664 75.0466663,177.690666 75.116,177.744 C75.1853337,177.797334 75.22,177.872 75.22,177.968 C75.22,178.224001 75.0680015,178.525332 74.764,178.872 C74.4599985,179.218668 74.0253362,179.519999 73.46,179.776 C72.8946638,180.032001 72.2386704,180.16 71.492,180.16 C70.2973274,180.16 69.3506702,179.81867 68.652,179.136 Z M73.236,175.104 L73.236,175.072 C73.236,174.442664 73.0786682,173.938669 72.764,173.56 C72.4493318,173.181331 72.0200027,172.992 71.476,172.992 C70.9319973,172.992 70.5053349,173.181331 70.196,173.56 C69.8866651,173.938669 69.732,174.442664 69.732,175.072 L69.732,175.104 L73.236,175.104 Z M79.716,179.896 C79.6306662,179.826666 79.5613336,179.728001 79.508,179.6 L76.5,172.176 C76.4893333,172.144 76.484,172.096 76.484,172.032 C76.484,171.936 76.5186663,171.853334 76.588,171.784 C76.6573337,171.714666 76.7346662,171.68 76.82,171.68 L78.148,171.68 C78.3613344,171.68 78.505333,171.781332 78.58,171.984 L80.692,177.568 L82.804,171.984 C82.8253334,171.909333 82.8706663,171.84 82.94,171.776 C83.0093337,171.712 83.1026661,171.68 83.22,171.68 L84.548,171.68 C84.6440005,171.68 84.7239997,171.714666 84.788,171.784 C84.8520003,171.853334 84.884,171.936 84.884,172.032 C84.884,172.096 84.8786667,172.144 84.868,172.176 L81.876,179.6 C81.7586661,179.866668 81.566668,180 81.3,180 L80.084,180 C79.9239992,180 79.8013338,179.965334 79.716,179.896 Z M87.1,179.136 C86.4013298,178.45333 86.0306669,177.482673 85.988,176.224 L85.972,175.824 C85.972,174.49066 86.3213298,173.440004 87.02,172.672 C87.7186702,171.903996 88.6866605,171.52 89.924,171.52 C91.1933397,171.52 92.1719966,171.903996 92.86,172.672 C93.5480034,173.440004 93.892,174.463994 93.892,175.744 L93.892,176.08 C93.892,176.186667 93.854667,176.277333 93.78,176.352 C93.705333,176.426667 93.6093339,176.464 93.492,176.464 L88.18,176.464 L88.18,176.592 C88.2013334,177.189336 88.3639985,177.682665 88.668,178.072 C88.9720015,178.461335 89.390664,178.656 89.924,178.656 C90.532003,178.656 91.0279981,178.410669 91.412,177.92 C91.5080005,177.802666 91.5826664,177.730667 91.636,177.704 C91.6893336,177.677333 91.7799994,177.664 91.908,177.664 L93.316,177.664 C93.4120005,177.664 93.4946663,177.690666 93.564,177.744 C93.6333337,177.797334 93.668,177.872 93.668,177.968 C93.668,178.224001 93.5160015,178.525332 93.212,178.872 C92.9079985,179.218668 92.4733362,179.519999 91.908,179.776 C91.3426638,180.032001 90.6866704,180.16 89.94,180.16 C88.7453274,180.16 87.7986702,179.81867 87.1,179.136 Z M91.684,175.104 L91.684,175.072 C91.684,174.442664 91.5266682,173.938669 91.212,173.56 C90.8973318,173.181331 90.4680027,172.992 89.924,172.992 C89.3799973,172.992 88.9533349,173.181331 88.644,173.56 C88.3346651,173.938669 88.18,174.442664 88.18,175.072 L88.18,175.104 L91.684,175.104 Z M95.716,179.888 C95.641333,179.813333 95.604,179.722667 95.604,179.616 L95.604,169.024 C95.604,168.906666 95.641333,168.813334 95.716,168.744 C95.790667,168.674666 95.8813328,168.64 95.988,168.64 L97.332,168.64 C97.4493339,168.64 97.5426663,168.674666 97.612,168.744 C97.6813337,168.813334 97.716,168.906666 97.716,169.024 L97.716,179.616 C97.716,179.722667 97.6813337,179.813333 97.612,179.888 C97.5426663,179.962667 97.4493339,180 97.332,180 L95.988,180 C95.8813328,180 95.790667,179.962667 95.716,179.888 Z M100.628,179.2 C99.9453299,178.559997 99.5773336,177.674672 99.524,176.544 L99.508,175.84 L99.524,175.136 C99.5773336,174.015994 99.9506632,173.133337 100.644,172.488 C101.337337,171.842663 102.30266,171.52 103.54,171.52 C104.766673,171.52 105.726663,171.842663 106.42,172.488 C107.113337,173.133337 107.486666,174.015994 107.54,175.136 C107.550667,175.264001 107.556,175.498665 107.556,175.84 C107.556,176.181335 107.550667,176.415999 107.54,176.544 C107.486666,177.674672 107.11867,178.559997 106.436,179.2 C105.75333,179.840003 104.788006,180.16 103.54,180.16 C102.281327,180.16 101.31067,179.840003 100.628,179.2 Z M104.844,178.016 C105.148002,177.663998 105.310667,177.14667 105.332,176.464 C105.342667,176.357333 105.348,176.149335 105.348,175.84 C105.348,175.530665 105.342667,175.322667 105.332,175.216 C105.310667,174.53333 105.145335,174.013335 104.836,173.656 C104.526665,173.298665 104.094669,173.12 103.54,173.12 C102.974664,173.12 102.537335,173.298665 102.228,173.656 C101.918665,174.013335 101.753333,174.53333 101.732,175.216 L101.716,175.84 L101.732,176.464 C101.753333,177.14667 101.918665,177.663998 102.228,178.016 C102.537335,178.368002 102.974664,178.544 103.54,178.544 C104.105336,178.544 104.539998,178.368002 104.844,178.016 Z M109.46,182.936 C109.385333,182.866666 109.348,182.773334 109.348,182.656 L109.348,172.064 C109.348,171.946666 109.385333,171.853334 109.46,171.784 C109.534667,171.714666 109.625333,171.68 109.732,171.68 L111.012,171.68 C111.129334,171.68 111.225333,171.717333 111.3,171.792 C111.374667,171.866667 111.412,171.957333 111.412,172.064 L111.412,172.704 C111.977336,171.914663 112.825328,171.52 113.956,171.52 C115.033339,171.52 115.859997,171.858663 116.436,172.536 C117.012003,173.213337 117.321333,174.122661 117.364,175.264 C117.374667,175.392001 117.38,175.583999 117.38,175.84 C117.38,176.096001 117.374667,176.287999 117.364,176.416 C117.332,177.536006 117.025336,178.439997 116.444,179.128 C115.862664,179.816003 115.033339,180.16 113.956,180.16 C112.889328,180.16 112.073336,179.781337 111.508,179.024 L111.508,182.656 C111.508,182.773334 111.473334,182.866666 111.404,182.936 C111.334666,183.005334 111.241334,183.04 111.124,183.04 L109.732,183.04 C109.625333,183.04 109.534667,183.005334 109.46,182.936 Z M115.172,176.32 C115.182667,176.213333 115.188,176.053334 115.188,175.84 C115.188,175.626666 115.182667,175.466667 115.172,175.36 C115.097333,173.951993 114.489339,173.248 113.348,173.248 C112.739997,173.248 112.286668,173.445331 111.988,173.84 C111.689332,174.234669 111.529333,174.714664 111.508,175.28 C111.497333,175.408001 111.492,175.610665 111.492,175.888 C111.492,176.165335 111.497333,176.373333 111.508,176.512 C111.529333,177.045336 111.694665,177.498665 112.004,177.872 C112.313335,178.245335 112.76133,178.432 113.348,178.432 C114.489339,178.432 115.097333,177.728007 115.172,176.32 Z M119.268,179.888 C119.193333,179.813333 119.156,179.722667 119.156,179.616 L119.156,172.064 C119.156,171.946666 119.193333,171.853334 119.268,171.784 C119.342667,171.714666 119.433333,171.68 119.54,171.68 L120.804,171.68 C120.921334,171.68 121.014666,171.714666 121.084,171.784 C121.153334,171.853334 121.188,171.946666 121.188,172.064 L121.188,172.608 C121.764003,171.882663 122.537328,171.52 123.508,171.52 C124.692006,171.52 125.518664,171.994662 125.988,172.944 C126.244001,172.517331 126.606664,172.173335 127.076,171.912 C127.545336,171.650665 128.051997,171.52 128.596,171.52 C129.470671,171.52 130.185331,171.818664 130.74,172.416 C131.294669,173.013336 131.572,173.882661 131.572,175.024 L131.572,179.616 C131.572,179.722667 131.537334,179.813333 131.468,179.888 C131.398666,179.962667 131.305334,180 131.188,180 L129.86,180 C129.753333,180 129.662667,179.962667 129.588,179.888 C129.513333,179.813333 129.476,179.722667 129.476,179.616 L129.476,175.152 C129.476,174.479997 129.334668,173.994668 129.052,173.696 C128.769332,173.397332 128.398669,173.248 127.94,173.248 C127.523998,173.248 127.169335,173.399998 126.876,173.704 C126.582665,174.008002 126.436,174.490663 126.436,175.152 L126.436,179.616 C126.436,179.722667 126.401334,179.813333 126.332,179.888 C126.262666,179.962667 126.169334,180 126.052,180 L124.708,180 C124.601333,180 124.510667,179.962667 124.436,179.888 C124.361333,179.813333 124.324,179.722667 124.324,179.616 L124.324,175.152 C124.324,174.490663 124.180001,174.008002 123.892,173.704 C123.603999,173.399998 123.236002,173.248 122.788,173.248 C122.371998,173.248 122.017335,173.399998 121.724,173.704 C121.430665,174.008002 121.284,174.490663 121.284,175.152 L121.284,179.616 C121.284,179.722667 121.249334,179.813333 121.18,179.888 C121.110666,179.962667 121.017334,180 120.9,180 L119.54,180 C119.433333,180 119.342667,179.962667 119.268,179.888 Z M134.364,179.136 C133.66533,178.45333 133.294667,177.482673 133.252,176.224 L133.236,175.824 C133.236,174.49066 133.58533,173.440004 134.284,172.672 C134.98267,171.903996 135.95066,171.52 137.188,171.52 C138.45734,171.52 139.435997,171.903996 140.124,172.672 C140.812003,173.440004 141.156,174.463994 141.156,175.744 L141.156,176.08 C141.156,176.186667 141.118667,176.277333 141.044,176.352 C140.969333,176.426667 140.873334,176.464 140.756,176.464 L135.444,176.464 L135.444,176.592 C135.465333,177.189336 135.627998,177.682665 135.932,178.072 C136.236002,178.461335 136.654664,178.656 137.188,178.656 C137.796003,178.656 138.291998,178.410669 138.676,177.92 C138.772,177.802666 138.846666,177.730667 138.9,177.704 C138.953334,177.677333 139.043999,177.664 139.172,177.664 L140.58,177.664 C140.676,177.664 140.758666,177.690666 140.828,177.744 C140.897334,177.797334 140.932,177.872 140.932,177.968 C140.932,178.224001 140.780002,178.525332 140.476,178.872 C140.171998,179.218668 139.737336,179.519999 139.172,179.776 C138.606664,180.032001 137.95067,180.16 137.204,180.16 C136.009327,180.16 135.06267,179.81867 134.364,179.136 Z M138.948,175.104 L138.948,175.072 C138.948,174.442664 138.790668,173.938669 138.476,173.56 C138.161332,173.181331 137.732003,172.992 137.188,172.992 C136.643997,172.992 136.217335,173.181331 135.908,173.56 C135.598665,173.938669 135.444,174.442664 135.444,175.072 L135.444,175.104 L138.948,175.104 Z M142.964,179.888 C142.889333,179.813333 142.852,179.722667 142.852,179.616 L142.852,172.064 C142.852,171.946666 142.889333,171.853334 142.964,171.784 C143.038667,171.714666 143.129333,171.68 143.236,171.68 L144.564,171.68 C144.681334,171.68 144.774666,171.714666 144.844,171.784 C144.913334,171.853334 144.948,171.946666 144.948,172.064 L144.948,172.72 C145.59867,171.919996 146.489328,171.52 147.62,171.52 C148.601338,171.52 149.379997,171.839997 149.956,172.48 C150.532003,173.120003 150.82,173.999994 150.82,175.12 L150.82,179.616 C150.82,179.722667 150.785334,179.813333 150.716,179.888 C150.646666,179.962667 150.553334,180 150.436,180 L148.996,180 C148.889333,180 148.798667,179.962667 148.724,179.888 C148.649333,179.813333 148.612,179.722667 148.612,179.616 L148.612,175.216 C148.612,174.59733 148.460002,174.114668 148.156,173.768 C147.851998,173.421332 147.417336,173.248 146.852,173.248 C146.307997,173.248 145.870668,173.423998 145.54,173.776 C145.209332,174.128002 145.044,174.607997 145.044,175.216 L145.044,179.616 C145.044,179.722667 145.009334,179.813333 144.94,179.888 C144.870666,179.962667 144.777334,180 144.66,180 L143.236,180 C143.129333,180 143.038667,179.962667 142.964,179.888 Z M154.436,179.24 C153.945331,178.733331 153.7,177.989338 153.7,177.008 L153.7,173.392 L152.436,173.392 C152.329333,173.392 152.238667,173.354667 152.164,173.28 C152.089333,173.205333 152.052,173.114667 152.052,173.008 L152.052,172.064 C152.052,171.957333 152.089333,171.866667 152.164,171.792 C152.238667,171.717333 152.329333,171.68 152.436,171.68 L153.7,171.68 L153.7,169.024 C153.7,168.906666 153.737333,168.813334 153.812,168.744 C153.886667,168.674666 153.977333,168.64 154.084,168.64 L155.412,168.64 C155.529334,168.64 155.622666,168.674666 155.692,168.744 C155.761334,168.813334 155.796,168.906666 155.796,169.024 L155.796,171.68 L157.796,171.68 C157.902667,171.68 157.993333,171.717333 158.068,171.792 C158.142667,171.866667 158.18,171.957333 158.18,172.064 L158.18,173.008 C158.18,173.114667 158.142667,173.205333 158.068,173.28 C157.993333,173.354667 157.902667,173.392 157.796,173.392 L155.796,173.392 L155.796,176.832 C155.796,177.290669 155.875999,177.637332 156.036,177.872 C156.196001,178.106668 156.457332,178.224 156.82,178.224 L157.94,178.224 C158.057334,178.224 158.150666,178.258666 158.22,178.328 C158.289334,178.397334 158.324,178.490666 158.324,178.608 L158.324,179.616 C158.324,179.722667 158.289334,179.813333 158.22,179.888 C158.150666,179.962667 158.057334,180 157.94,180 L156.628,180 C155.657328,180 154.926669,179.746669 154.436,179.24 Z M164.492,179.032 C163.686663,178.279996 163.257334,177.210674 163.204,175.824 C163.193333,175.535999 163.188,175.06667 163.188,174.416 C163.188,173.754663 163.193333,173.274668 163.204,172.976 C163.257334,171.61066 163.689329,170.54667 164.5,169.784 C165.310671,169.02133 166.446659,168.64 167.908,168.64 C168.857338,168.64 169.683996,168.802665 170.388,169.128 C171.092004,169.453335 171.638665,169.898664 172.028,170.464 C172.417335,171.029336 172.622667,171.663996 172.644,172.368 L172.644,172.4 C172.644,172.485334 172.609334,172.557333 172.54,172.616 C172.470666,172.674667 172.393334,172.704 172.308,172.704 L170.756,172.704 C170.627999,172.704 170.532,172.674667 170.468,172.616 C170.404,172.557333 170.350667,172.453334 170.308,172.304 C170.147999,171.642663 169.870669,171.176001 169.476,170.904 C169.081331,170.631999 168.55867,170.496 167.908,170.496 C166.382659,170.496 165.588,171.349325 165.524,173.056 C165.513333,173.344001 165.508,173.786664 165.508,174.384 C165.508,174.981336 165.513333,175.434665 165.524,175.744 C165.588,177.450675 166.382659,178.304 167.908,178.304 C168.548003,178.304 169.067998,178.168001 169.468,177.896 C169.868002,177.623999 170.147999,177.157337 170.308,176.496 C170.350667,176.346666 170.404,176.242667 170.468,176.184 C170.532,176.125333 170.627999,176.096 170.756,176.096 L172.308,176.096 C172.404,176.096 172.486666,176.128 172.556,176.192 C172.625334,176.256 172.654667,176.336 172.644,176.432 C172.622667,177.136004 172.417335,177.770664 172.028,178.336 C171.638665,178.901336 171.092004,179.346665 170.388,179.672 C169.683996,179.997335 168.857338,180.16 167.908,180.16 C166.435993,180.16 165.297337,179.784004 164.492,179.032 Z M175.14,179.2 C174.45733,178.559997 174.089334,177.674672 174.036,176.544 L174.02,175.84 L174.036,175.136 C174.089334,174.015994 174.462663,173.133337 175.156,172.488 C175.849337,171.842663 176.81466,171.52 178.052,171.52 C179.278673,171.52 180.238663,171.842663 180.932,172.488 C181.625337,173.133337 181.998666,174.015994 182.052,175.136 C182.062667,175.264001 182.068,175.498665 182.068,175.84 C182.068,176.181335 182.062667,176.415999 182.052,176.544 C181.998666,177.674672 181.63067,178.559997 180.948,179.2 C180.26533,179.840003 179.300006,180.16 178.052,180.16 C176.793327,180.16 175.82267,179.840003 175.14,179.2 Z M179.356,178.016 C179.660002,177.663998 179.822667,177.14667 179.844,176.464 C179.854667,176.357333 179.86,176.149335 179.86,175.84 C179.86,175.530665 179.854667,175.322667 179.844,175.216 C179.822667,174.53333 179.657335,174.013335 179.348,173.656 C179.038665,173.298665 178.606669,173.12 178.052,173.12 C177.486664,173.12 177.049335,173.298665 176.74,173.656 C176.430665,174.013335 176.265333,174.53333 176.244,175.216 L176.228,175.84 L176.244,176.464 C176.265333,177.14667 176.430665,177.663998 176.74,178.016 C177.049335,178.368002 177.486664,178.544 178.052,178.544 C178.617336,178.544 179.051998,178.368002 179.356,178.016 Z M183.956,179.888 C183.881333,179.813333 183.844,179.722667 183.844,179.616 L183.844,172.064 C183.844,171.946666 183.881333,171.853334 183.956,171.784 C184.030667,171.714666 184.121333,171.68 184.228,171.68 L185.492,171.68 C185.609334,171.68 185.702666,171.714666 185.772,171.784 C185.841334,171.853334 185.876,171.946666 185.876,172.064 L185.876,172.608 C186.452003,171.882663 187.225328,171.52 188.196,171.52 C189.380006,171.52 190.206664,171.994662 190.676,172.944 C190.932001,172.517331 191.294664,172.173335 191.764,171.912 C192.233336,171.650665 192.739997,171.52 193.284,171.52 C194.158671,171.52 194.873331,171.818664 195.428,172.416 C195.982669,173.013336 196.26,173.882661 196.26,175.024 L196.26,179.616 C196.26,179.722667 196.225334,179.813333 196.156,179.888 C196.086666,179.962667 195.993334,180 195.876,180 L194.548,180 C194.441333,180 194.350667,179.962667 194.276,179.888 C194.201333,179.813333 194.164,179.722667 194.164,179.616 L194.164,175.152 C194.164,174.479997 194.022668,173.994668 193.74,173.696 C193.457332,173.397332 193.086669,173.248 192.628,173.248 C192.211998,173.248 191.857335,173.399998 191.564,173.704 C191.270665,174.008002 191.124,174.490663 191.124,175.152 L191.124,179.616 C191.124,179.722667 191.089334,179.813333 191.02,179.888 C190.950666,179.962667 190.857334,180 190.74,180 L189.396,180 C189.289333,180 189.198667,179.962667 189.124,179.888 C189.049333,179.813333 189.012,179.722667 189.012,179.616 L189.012,175.152 C189.012,174.490663 188.868001,174.008002 188.58,173.704 C188.291999,173.399998 187.924002,173.248 187.476,173.248 C187.059998,173.248 186.705335,173.399998 186.412,173.704 C186.118665,174.008002 185.972,174.490663 185.972,175.152 L185.972,179.616 C185.972,179.722667 185.937334,179.813333 185.868,179.888 C185.798666,179.962667 185.705334,180 185.588,180 L184.228,180 C184.121333,180 184.030667,179.962667 183.956,179.888 Z M198.42,182.936 C198.345333,182.866666 198.308,182.773334 198.308,182.656 L198.308,172.064 C198.308,171.946666 198.345333,171.853334 198.42,171.784 C198.494667,171.714666 198.585333,171.68 198.692,171.68 L199.972,171.68 C200.089334,171.68 200.185333,171.717333 200.26,171.792 C200.334667,171.866667 200.372,171.957333 200.372,172.064 L200.372,172.704 C200.937336,171.914663 201.785328,171.52 202.916,171.52 C203.993339,171.52 204.819997,171.858663 205.396,172.536 C205.972003,173.213337 206.281333,174.122661 206.324,175.264 C206.334667,175.392001 206.34,175.583999 206.34,175.84 C206.34,176.096001 206.334667,176.287999 206.324,176.416 C206.292,177.536006 205.985336,178.439997 205.404,179.128 C204.822664,179.816003 203.993339,180.16 202.916,180.16 C201.849328,180.16 201.033336,179.781337 200.468,179.024 L200.468,182.656 C200.468,182.773334 200.433334,182.866666 200.364,182.936 C200.294666,183.005334 200.201334,183.04 200.084,183.04 L198.692,183.04 C198.585333,183.04 198.494667,183.005334 198.42,182.936 Z M204.132,176.32 C204.142667,176.213333 204.148,176.053334 204.148,175.84 C204.148,175.626666 204.142667,175.466667 204.132,175.36 C204.057333,173.951993 203.449339,173.248 202.308,173.248 C201.699997,173.248 201.246668,173.445331 200.948,173.84 C200.649332,174.234669 200.489333,174.714664 200.468,175.28 C200.457333,175.408001 200.452,175.610665 200.452,175.888 C200.452,176.165335 200.457333,176.373333 200.468,176.512 C200.489333,177.045336 200.654665,177.498665 200.964,177.872 C201.273335,178.245335 201.72133,178.432 202.308,178.432 C203.449339,178.432 204.057333,177.728007 204.132,176.32 Z M209.036,179.832 C208.582664,179.613332 208.225335,179.317335 207.964,178.944 C207.702665,178.570665 207.572,178.160002 207.572,177.712 C207.572,176.986663 207.86533,176.400002 208.452,175.952 C209.03867,175.503998 209.843995,175.200001 210.868,175.04 L213.06,174.72 L213.06,174.384 C213.06,173.925331 212.942668,173.578668 212.708,173.344 C212.473332,173.109332 212.100003,172.992 211.588,172.992 C211.235998,172.992 210.953334,173.055999 210.74,173.184 C210.526666,173.312001 210.353334,173.442666 210.22,173.576 L209.956,173.84 C209.913333,173.968001 209.833334,174.032 209.716,174.032 L208.468,174.032 C208.372,174.032 208.289334,174 208.22,173.936 C208.150666,173.872 208.116,173.786667 208.116,173.68 C208.126667,173.413332 208.257332,173.112002 208.508,172.776 C208.758668,172.439998 209.145331,172.146668 209.668,171.896 C210.190669,171.645332 210.835996,171.52 211.604,171.52 C212.862673,171.52 213.779997,171.802664 214.356,172.368 C214.932003,172.933336 215.22,173.674662 215.22,174.592 L215.22,179.616 C215.22,179.722667 215.185334,179.813333 215.116,179.888 C215.046666,179.962667 214.953334,180 214.836,180 L213.508,180 C213.401333,180 213.310667,179.962667 213.236,179.888 C213.161333,179.813333 213.124,179.722667 213.124,179.616 L213.124,178.992 C212.889332,179.333335 212.558669,179.613332 212.132,179.832 C211.705331,180.050668 211.172003,180.16 210.532,180.16 C209.987997,180.16 209.489336,180.050668 209.036,179.832 Z M212.516,178.048 C212.889335,177.663998 213.076,177.109337 213.076,176.384 L213.076,176.064 L211.476,176.32 C210.249327,176.512001 209.636,176.922664 209.636,177.552 C209.636,177.893335 209.777332,178.157332 210.06,178.344 C210.342668,178.530668 210.681331,178.624 211.076,178.624 C211.66267,178.624 212.142665,178.432002 212.516,178.048 Z M217.38,179.888 C217.305333,179.813333 217.268,179.722667 217.268,179.616 L217.268,172.064 C217.268,171.946666 217.305333,171.853334 217.38,171.784 C217.454667,171.714666 217.545333,171.68 217.652,171.68 L218.98,171.68 C219.097334,171.68 219.190666,171.714666 219.26,171.784 C219.329334,171.853334 219.364,171.946666 219.364,172.064 L219.364,172.72 C220.01467,171.919996 220.905328,171.52 222.036,171.52 C223.017338,171.52 223.795997,171.839997 224.372,172.48 C224.948003,173.120003 225.236,173.999994 225.236,175.12 L225.236,179.616 C225.236,179.722667 225.201334,179.813333 225.132,179.888 C225.062666,179.962667 224.969334,180 224.852,180 L223.412,180 C223.305333,180 223.214667,179.962667 223.14,179.888 C223.065333,179.813333 223.028,179.722667 223.028,179.616 L223.028,175.216 C223.028,174.59733 222.876002,174.114668 222.572,173.768 C222.267998,173.421332 221.833336,173.248 221.268,173.248 C220.723997,173.248 220.286668,173.423998 219.956,173.776 C219.625332,174.128002 219.46,174.607997 219.46,175.216 L219.46,179.616 C219.46,179.722667 219.425334,179.813333 219.356,179.888 C219.286666,179.962667 219.193334,180 219.076,180 L217.652,180 C217.545333,180 217.454667,179.962667 217.38,179.888 Z M228.54,182.944 C228.470666,182.88 228.436,182.805334 228.436,182.72 C228.436,182.645333 228.457333,182.56 228.5,182.464 L229.764,179.504 L226.692,172.256 C226.649333,172.16 226.628,172.085334 226.628,172.032 C226.638667,171.936 226.676,171.853334 226.74,171.784 C226.804,171.714666 226.884,171.68 226.98,171.68 L228.308,171.68 C228.500001,171.68 228.638666,171.781332 228.724,171.984 L230.852,177.2 L233.012,171.984 C233.118667,171.781332 233.267999,171.68 233.46,171.68 L234.756,171.68 C234.852,171.68 234.932,171.712 234.996,171.776 C235.06,171.84 235.092,171.914666 235.092,172 C235.092,172.074667 235.070667,172.16 235.028,172.256 L230.5,182.736 C230.414666,182.938668 230.265334,183.04 230.052,183.04 L228.772,183.04 C228.686666,183.04 228.609334,183.008 228.54,182.944 Z" id="Top-Mobile-App-Devel" fill="#4A4A4A"></path>
    </g>
</svg>