<svg xmlns="http://www.w3.org/2000/svg" xmlns:xlink="http://www.w3.org/1999/xlink" width="99" height="99" viewBox="0 0 99 99"><defs><clipPath id="a"><rect width="29.762" height="52.526" fill="#9ecb3c"/></clipPath></defs><g transform="translate(-325 -3605)"><circle cx="49.5" cy="49.5" r="49.5" transform="translate(325 3605)" fill="#f6faed"/><g transform="translate(359.619 3628.237)"><g clip-path="url(#a)"><path d="M29.763,26.275q0,10.338,0,20.677a5.266,5.266,0,0,1-5.6,5.574H5.625A5.272,5.272,0,0,1,0,46.926q0-20.7,0-41.408A5.262,5.262,0,0,1,5.542,0q9.326,0,18.651,0a5.267,5.267,0,0,1,5.57,5.6q0,10.338,0,20.677M1.752,8.749v.672q0,5.635,0,11.269,0,13.211,0,26.422a3.483,3.483,0,0,0,3.039,3.622,14.093,14.093,0,0,0,1.857.038q8.862,0,17.723,0a3.327,3.327,0,0,0,3.479-2.582,38.189,38.189,0,0,0,.218-4.448H3.533V42.006H28.011V40.2q0-17.4,0-34.792a3.471,3.471,0,0,0-3.473-3.654q-9.654-.024-19.309,0A3.313,3.313,0,0,0,1.954,4.18a18.33,18.33,0,0,0-.277,2.851H26.23V8.749Z" transform="translate(0 0)" fill="#9ecb3c"/><rect width="19.207" height="1.678" transform="translate(5.291 30.672)" fill="#9ecb3c"/><rect width="19.188" height="1.685" transform="translate(5.277 34.17)" fill="#9ecb3c"/><rect width="13.938" height="1.697" transform="translate(10.533 27.16)" fill="#9ecb3c"/><path d="M43.069,147.42a2.625,2.625,0,1,1-2.6,2.676,2.632,2.632,0,0,1,2.6-2.676m.894,2.631a.871.871,0,1,0-.877.865.88.88,0,0,0,.877-.865" transform="translate(-28.212 -102.772)" fill="#9ecb3c"/><path d="M24.89,54.24l-1.231,1.153-3.978-4.01L23.675,47.4l1.1,1.112-2.843,2.8L24.89,54.24" transform="translate(-13.72 -33.042)" fill="#9ecb3c"/><path d="M61.568,54.39l2.778-2.758-2.9-2.847,1.3-1.17,3.911,3.969-4.026,3.971L61.568,54.39" transform="translate(-42.837 -33.194)" fill="#9ecb3c"/><path d="M42.876,45.7l1.516.872-4.728,8.2-1.52-.867L42.876,45.7" transform="translate(-26.592 -31.861)" fill="#9ecb3c"/><rect width="5.203" height="1.665" transform="translate(12.292 3.547)" fill="#9ecb3c"/><rect width="3.446" height="1.688" transform="translate(5.275 27.175)" fill="#9ecb3c"/><rect width="1.683" height="1.685" transform="translate(19.3 3.54)" fill="#9ecb3c"/></g></g></g></svg>