<svg xmlns="http://www.w3.org/2000/svg" xmlns:xlink="http://www.w3.org/1999/xlink" width="99" height="99" viewBox="0 0 99 99"><defs><clipPath id="a"><rect width="45.075" height="37.567" fill="#b468b2"/></clipPath></defs><g transform="translate(-773 -3605)"><circle cx="49.5" cy="49.5" r="49.5" transform="translate(773 3605)" fill="#f4eff7"/><g transform="translate(799.963 3635.716)"><g clip-path="url(#a)"><path d="M43.578,7.53H1.5v.487q0,13.5,0,27c0,.847.226,1.065,1.1,1.065H18.418c.735,0,1.094.235,1.107.721.014.5-.359.759-1.117.759H2.537A2.282,2.282,0,0,1,.018,35.026C.018,24.164.032,13.3,0,2.441A2.422,2.422,0,0,1,2.432,0Q22.574.043,42.717.017a2.217,2.217,0,0,1,2.357,2.34q0,16.363,0,32.726a2.275,2.275,0,0,1-2.483,2.479c-1.377,0-2.755.021-4.131-.019a1.169,1.169,0,0,1-.761-.41.685.685,0,0,1,.025-.674,1.259,1.259,0,0,1,.8-.361c1.376-.035,2.754-.014,4.132-.018.673,0,.942-.266.942-.935q0-13.64,0-27.279c0-.093-.008-.186-.015-.334m.016-1.518V2.683c0-.963-.222-1.186-1.186-1.186H2.543C1.773,1.5,1.5,1.772,1.5,2.542c0,.564,0,1.127,0,1.691,0,.588,0,1.177,0,1.779Z" transform="translate(0 0)" fill="#b468b2"/><path d="M50.919,57.1c-.372-.49-.636-1.174-1.074-1.314-.393-.126-.984.332-1.475.559-1.616.746-1.308.647-2.456-.283a12.107,12.107,0,0,0-1.28-.867.887.887,0,0,1-.46-.982c.1-.711.162-1.429.256-2.142.032-.246-.028-.369-.281-.438-.451-.122-.891-.282-1.387-.444-.394.7-.782,1.388-1.172,2.078-.335.594-.506.65-1.173.61a14.492,14.492,0,0,0-2.011.009,1.006,1.006,0,0,1-1.114-.565c-.37-.7-.774-1.391-1.186-2.126-.513.164-1.019.31-1.509.5-.088.034-.163.246-.152.369.064.716.139,1.432.243,2.143a.917.917,0,0,1-.452.988q-.968.658-1.889,1.382a.9.9,0,0,1-1.038.14c-.663-.315-1.337-.608-2-.931a.329.329,0,0,0-.5.13c-.26.39-.546.763-.858,1.194.5.546.979,1.123,1.519,1.634a1.181,1.181,0,0,1,.271,1.547,7.988,7.988,0,0,0-.558,1.733,1.1,1.1,0,0,1-1.018.98c-.648.1-1.286.264-1.933.371-.249.041-.354.123-.342.384.022.468-.154,1.066.074,1.369.215.287.84.274,1.288.379.38.09.763.171,1.147.238a.8.8,0,0,1,.7.653c.106.44.241.873.355,1.312a.76.76,0,0,1-.485,1.017.693.693,0,0,1-.9-.59c-.131-.921-.688-1.2-1.51-1.273a12.871,12.871,0,0,1-1.472-.283.767.767,0,0,1-.674-.825c0-.939-.006-1.878,0-2.817a.758.758,0,0,1,.706-.842c.749-.157,1.5-.319,2.252-.449a.5.5,0,0,0,.472-.419,8.911,8.911,0,0,1,.4-1.2.466.466,0,0,0-.131-.575c-.52-.542-1.026-1.1-1.532-1.652A.8.8,0,0,1,26.5,56.6q.779-1.087,1.573-2.164a.773.773,0,0,1,1.133-.3c.7.313,1.4.629,2.085.963a.465.465,0,0,0,.585-.06c.321-.272.7-.483,1.008-.763a.751.751,0,0,0,.242-.528c-.052-.7-.156-1.4-.243-2.1-.094-.76.039-.967.767-1.206s1.453-.481,2.181-.719c.829-.271,1.017-.2,1.439.55.337.6.686,1.193,1.007,1.8a.439.439,0,0,0,.515.282,1.654,1.654,0,0,1,.608-.014c.825.194,1.248-.207,1.547-.921a15.141,15.141,0,0,1,.768-1.4.769.769,0,0,1,.991-.4q1.364.426,2.717.889c.483.166.621.43.557.993-.083.73-.168,1.46-.269,2.188a.543.543,0,0,0,.283.617,7.507,7.507,0,0,1,.98.724.461.461,0,0,0,.585.058c.675-.326,1.359-.634,2.042-.945a.792.792,0,0,1,1.176.287q.8,1.075,1.574,2.162a.793.793,0,0,1-.085,1.209c-.484.533-.966,1.068-1.469,1.582-.221.226-.334.426-.151.729a1.176,1.176,0,0,1,.167.485c.073.835.579,1.131,1.351,1.2a13.061,13.061,0,0,1,1.518.292c.558.115.755.341.759.893q.01,1.361,0,2.723c0,.548-.2.775-.762.89-.75.155-1.5.29-2.248.47a.712.712,0,0,0-.392.361c-.123.249-.13.559-.269.8a.953.953,0,0,0,.3,1.362,9.693,9.693,0,0,1,.895.961.753.753,0,0,1,.025,1.089.716.716,0,0,1-1.08-.073c-.605-.634-1.22-1.262-1.769-1.942A1.1,1.1,0,0,1,49,68.77c.212-.813.513-1.6.762-2.407a.792.792,0,0,1,.642-.6c.751-.15,1.5-.291,2.248-.469.124-.03.21-.225.309-.348.015-.019,0-.061,0-.092-.011-.452.142-1.035-.082-1.318s-.823-.251-1.261-.349c-.4-.089-.794-.174-1.193-.249a.808.808,0,0,1-.671-.63q-.36-1.186-.771-2.356a.875.875,0,0,1,.211-.983c.569-.6,1.124-1.215,1.72-1.862" transform="translate(-16.884 -34.288)" fill="#b468b2"/><path d="M50.272,80.665a5.973,5.973,0,0,0,.98,3.277c.194.3.288.652.026.906a1.087,1.087,0,0,1-.771.268c-.194-.018-.41-.266-.536-.463a7.489,7.489,0,1,1,6.675,3.489c-.078,0-.156,0-.234,0a.745.745,0,1,1-.044-1.48,8.915,8.915,0,0,0,1.209-.137,6.025,6.025,0,1,0-7.3-5.864" transform="translate(-33.749 -50.588)" fill="#b468b2"/><path d="M15.1,39.035q2.113,0,4.225,0c.633,0,.992.278.984.75s-.357.728-.959.729q-4.3,0-8.591,0c-.593,0-.944-.288-.936-.75s.356-.727.958-.728q2.159,0,4.319,0" transform="translate(-6.791 -26.996)" fill="#b468b2"/><path d="M12.763,50.257c-.689,0-1.377.005-2.066,0-.546-.005-.893-.312-.879-.759.012-.431.345-.715.873-.717q2.112-.008,4.225,0c.549,0,.894.31.88.758-.013.43-.348.713-.874.718-.72.007-1.439,0-2.159,0" transform="translate(-6.79 -33.732)" fill="#b468b2"/><path d="M9.817,10.516a.736.736,0,1,1,.676.768.751.751,0,0,1-.676-.768" transform="translate(-6.789 -6.789)" fill="#b468b2"/><path d="M21.033,10.543a.735.735,0,1,1-.721-.725.753.753,0,0,1,.721.725" transform="translate(-13.53 -6.79)" fill="#b468b2"/><path d="M30.064,11.287a.736.736,0,1,1,.713-.734.754.754,0,0,1-.713.734" transform="translate(-20.269 -6.789)" fill="#b468b2"/></g></g></g></svg>